<?xml version="1.0" standalone="no"?>
<!DOCTYPE svg PUBLIC "-//W3C//DTD SVG 20010904//EN"
 "http://www.w3.org/TR/2001/REC-SVG-20010904/DTD/svg10.dtd">
<svg version="1.0" xmlns="http://www.w3.org/2000/svg"
 width="594.000000pt" height="990.000000pt" viewBox="0 0 594.000000 990.000000"
 preserveAspectRatio="xMidYMid meet">

<g transform="translate(0.000000,990.000000) scale(0.100000,-0.100000)"
fill="#000000" stroke="none">
<path d="M0 8700 l0 -1190 328 0 c180 0 332 4 338 8 9 5 13 236 16 847 2 507
8 847 13 857 7 11 9 -295 7 -848 l-2 -864 237 0 c131 0 243 4 249 8 9 5 13
235 16 847 2 510 8 847 13 857 7 11 9 -292 7 -848 l-2 -864 234 0 c129 0 241
3 250 6 14 6 16 89 16 840 0 706 2 840 14 869 19 44 28 45 15 3 -5 -19 -9
-386 -9 -876 l0 -842 386 1 c212 0 392 3 398 5 17 6 19 84 5 136 -10 36 -13
40 -20 23 -4 -11 -8 -38 -9 -60 -2 -69 -18 -88 -19 -23 -1 31 -4 58 -8 60 -10
4 -57 102 -73 151 -16 49 -25 41 -11 -10 6 -21 10 -63 10 -93 l-1 -55 -20 83
c-11 46 -22 82 -24 79 -2 -2 -1 -30 3 -63 11 -81 6 -127 -13 -120 -10 4 -14
-3 -15 -27 -1 -21 -4 -14 -9 23 -11 77 -12 1036 -2 1025 5 -6 26 -62 47 -125
20 -63 55 -155 77 -205 152 -344 174 -399 204 -512 19 -72 26 -124 26 -195 l1
-98 1634 0 1633 0 0 1190 0 1190 -2970 0 -2970 0 0 -1190z m930 1090 c53 -53
-16 -134 -72 -83 -10 9 -18 27 -18 40 0 26 32 63 55 63 8 0 24 -9 35 -20z
m-250 0 c0 -5 -7 -10 -15 -10 -13 0 -11 -6 6 -29 26 -35 19 -61 -16 -61 -31 0
-33 16 -3 23 l22 6 -23 25 c-14 14 -21 32 -18 40 7 17 47 22 47 6z m118 -3
c-9 -7 -18 -31 -20 -52 -4 -55 -28 -59 -28 -4 0 28 -6 46 -17 55 -16 12 -12
13 32 13 43 0 48 -2 33 -12z m262 -11 c0 -14 -5 -28 -10 -31 -7 -4 -7 -12 0
-25 13 -23 13 -30 0 -30 -5 0 -16 12 -24 28 l-15 27 -1 -27 c0 -16 -4 -28 -10
-28 -5 0 -10 25 -10 55 l0 55 35 0 c30 0 35 -3 35 -24z m105 14 c-3 -5 -15
-10 -26 -10 -10 0 -19 -4 -19 -10 0 -5 9 -10 20 -10 11 0 20 -4 20 -10 0 -5
-9 -10 -20 -10 -11 0 -20 -7 -20 -15 0 -9 9 -15 25 -15 14 0 25 -4 25 -10 0
-5 -16 -10 -35 -10 l-35 0 0 55 0 55 36 0 c21 0 33 -4 29 -10z m1810 -30 c7 0
16 6 18 13 3 6 6 -3 6 -22 1 -32 0 -33 -13 -16 -13 18 -13 18 -24 -1 -10 -16
-11 -14 -11 16 0 19 3 29 6 23 2 -7 11 -13 18 -13z m100 0 c9 -27 -1 -40 -31
-40 -29 0 -42 24 -24 45 18 21 48 19 55 -5z m60 0 c6 10 9 9 16 -1 14 -23 10
-35 -11 -35 -11 0 -20 4 -20 9 0 5 -7 4 -15 -3 -16 -13 -18 -8 -9 28 6 20 8
21 19 6 9 -13 14 -14 20 -4z m55 10 c-13 -9 -13 -10 0 -10 13 0 13 -1 0 -10
-13 -9 -13 -11 0 -20 13 -8 12 -10 -2 -10 -13 0 -18 8 -18 30 0 22 5 30 18 30
14 0 15 -2 2 -10z m234 -19 c15 -28 15 -28 -13 -27 -26 1 -28 3 -19 29 12 34
14 34 32 -2z m56 9 c0 -11 0 -23 1 -27 0 -5 -7 -9 -15 -11 -12 -3 -16 5 -16
27 0 21 5 31 15 31 8 0 15 -9 15 -20z m75 -10 c0 -28 -27 -39 -50 -20 -21 18
-1 52 28 48 16 -2 22 -10 22 -28z m45 -20 c5 0 11 12 13 28 4 25 4 25 6 -5 1
-27 -3 -33 -19 -33 -16 0 -20 6 -19 33 2 30 2 30 6 5 2 -16 8 -28 13 -28z m62
20 c-5 -36 -7 -35 -16 3 -4 19 -3 27 7 27 9 0 12 -9 9 -30z m306 -6 c-5 -29
-53 -26 -54 4 -1 18 -1 19 3 2 3 -12 13 -20 25 -20 16 0 19 5 15 26 -3 16 -1
22 5 16 6 -6 8 -18 6 -28z m67 26 c3 -6 -1 -7 -9 -4 -18 7 -21 14 -7 14 6 0
13 -4 16 -10z m70 -20 c0 -17 -6 -25 -20 -27 -16 -1 -16 -1 -2 3 9 3 17 14 17
24 0 10 -8 21 -17 24 -14 4 -14 4 2 3 14 -2 20 -10 20 -27z m38 15 c-3 -9 -8
-14 -10 -11 -3 3 -2 9 2 15 9 16 15 13 8 -4z m467 -19 c0 -13 -6 -23 -15 -23
-15 0 -21 37 -9 50 11 11 24 -3 24 -27z m703 19 c-3 -9 -8 -14 -10 -11 -3 3
-2 9 2 15 9 16 15 13 8 -4z m45 -19 c-3 -22 -34 -34 -50 -18 -6 6 0 8 16 5 29
-6 36 13 14 36 -11 10 -9 11 5 5 11 -4 17 -15 15 -28z m112 4 c0 -16 -2 -30
-4 -30 -2 0 -6 14 -8 30 -3 17 -1 30 4 30 4 0 8 -13 8 -30z m118 23 c-10 -2
-18 -9 -18 -15 0 -6 -3 -9 -6 -5 -10 10 6 27 24 26 15 -1 15 -2 0 -6z m54 -23
c-2 -16 -6 -30 -8 -30 -2 0 -4 14 -4 30 0 17 4 30 8 30 5 0 7 -13 4 -30z m50
23 c-10 -4 -9 -9 4 -24 16 -17 16 -19 0 -25 -9 -4 -20 -4 -23 0 -4 3 2 6 13 6
18 1 18 1 0 15 -18 14 -14 36 7 34 8 0 8 -2 -1 -6z m-1254 -28 c9 -17 7 -20
-14 -20 -27 0 -33 15 -6 16 10 0 12 3 4 6 -6 2 -9 9 -6 15 7 11 8 10 22 -17z
m34 -4 c2 -17 1 -28 -4 -25 -8 5 -12 54 -4 54 2 0 6 -13 8 -29z m35 -8 c-3
-10 -5 -4 -5 12 0 17 2 24 5 18 2 -7 2 -21 0 -30z m155 8 c-5 -23 -6 -24 -13
-6 -11 29 -11 32 4 32 9 0 12 -9 9 -26z m228 -14 c0 -4 -11 0 -25 10 -13 10
-25 22 -25 26 0 4 11 0 25 -10 13 -10 25 -22 25 -26z m130 22 c0 8 2 12 5 9 3
-3 3 -13 -1 -22 -6 -15 -7 -15 -19 1 -13 17 -14 17 -21 0 -5 -15 -9 -16 -15
-5 -5 7 -9 18 -9 23 0 6 4 3 10 -5 8 -12 10 -12 16 3 6 17 7 17 20 0 10 -13
13 -14 14 -4z m367 -16 c-3 -10 -5 -4 -5 12 0 17 2 24 5 18 2 -7 2 -21 0 -30z
m147 21 c9 -23 7 -36 -3 -30 -12 8 -21 46 -11 46 4 0 11 -7 14 -16z m-1804
-15 c0 -5 -7 -9 -15 -9 -15 0 -20 12 -9 23 8 8 24 -1 24 -14z m490 11 c0 -5
-4 -10 -9 -10 -6 0 -13 5 -16 10 -3 6 1 10 9 10 9 0 16 -4 16 -10z m710 6 c0
-3 -4 -8 -10 -11 -5 -3 -10 -1 -10 4 0 6 5 11 10 11 6 0 10 -2 10 -4z m-1040
-16 c0 -16 -30 -24 -42 -12 -8 8 -4 9 12 5 16 -4 21 -3 16 5 -4 7 -2 12 3 12
6 0 11 -5 11 -10z m154 -5 c-7 -16 -39 -20 -48 -6 -4 5 2 7 13 4 10 -3 22 0
25 6 10 16 16 13 10 -4z m1457 -8 c-10 -9 -11 -8 -5 6 3 10 9 15 12 12 3 -3 0
-11 -7 -18z m90 -5 c-7 -2 -18 1 -23 6 -8 8 -4 9 13 5 13 -4 18 -8 10 -11z
m-1434 2 c-3 -3 -12 -4 -19 -1 -8 3 -5 6 6 6 11 1 17 -2 13 -5z m920 0 c-3 -3
-12 -4 -19 -1 -8 3 -5 6 6 6 11 1 17 -2 13 -5z m200 0 c-3 -3 -12 -4 -19 -1
-8 3 -5 6 6 6 11 1 17 -2 13 -5z m-1808 -244 c10 -22 10 -23 -1 -8 -13 15 -15
15 -26 0 -9 -13 -9 -11 0 11 6 15 12 26 13 25 1 -2 8 -14 14 -28z m266 6 c0
-15 -4 -21 -9 -16 -5 5 -6 16 -3 24 9 22 12 20 12 -8z m-208 -16 c4 -13 3 -13
-6 0 -10 13 -12 13 -21 0 -8 -13 -10 -12 -10 3 0 22 31 19 37 -3z m53 3 c0
-14 -2 -15 -9 -4 -5 8 -14 10 -21 6 -9 -5 -11 -4 -6 3 11 18 36 14 36 -5z
m224 2 c-4 -8 -8 -15 -10 -15 -2 0 -4 7 -4 15 0 8 4 15 10 15 5 0 7 -7 4 -15z
m83 -5 c4 -12 3 -12 -5 -2 -5 8 -12 13 -16 12 -4 -1 -12 1 -19 4 -6 3 -1 4 12
3 14 -1 26 -9 28 -17z m30 -17 c-3 -10 -5 -4 -5 12 0 17 2 24 5 18 2 -7 2 -21
0 -30z m28 28 c3 -5 2 -12 -3 -15 -5 -3 -9 1 -9 9 0 17 3 19 12 6z m53 -12 c3
-11 2 -11 -7 1 -10 13 -12 13 -21 0 -5 -8 -10 -10 -10 -4 0 27 31 30 38 3z
m85 -6 c-3 -7 -6 -13 -8 -13 -2 0 -5 6 -8 13 -3 8 1 14 8 14 7 0 11 -6 8 -14z
m-568 -162 c7 -12 -12 -24 -25 -16 -11 7 -4 25 10 25 5 0 11 -4 15 -9z m80 -1
c-3 -5 -12 -10 -18 -10 -7 0 -6 4 3 10 19 12 23 12 15 0z m123 -1 c-2 -6 -8
-10 -13 -10 -5 0 -11 4 -13 10 -2 6 4 11 13 11 9 0 15 -5 13 -11z m40 -14 c-3
-3 -9 2 -12 12 -6 14 -5 15 5 6 7 -7 10 -15 7 -18z m-826 -140 c117 -19 230
-38 251 -41 22 -4 41 -13 47 -25 6 -10 16 -19 23 -19 7 0 23 -9 35 -20 19 -18
22 -31 22 -98 l0 -77 -36 40 c-20 22 -33 33 -31 24 3 -8 17 -53 32 -100 27
-86 46 -188 38 -202 -3 -5 -18 18 -33 50 -37 76 -37 66 0 -30 17 -43 30 -92
30 -110 0 -30 -1 -30 -34 23 -19 30 -37 53 -40 50 -3 -3 -21 10 -40 29 -38 37
-61 35 -46 -4 7 -19 6 -23 -5 -19 -7 3 -16 12 -19 20 -3 9 -10 12 -16 9 -5 -3
-10 1 -10 9 0 9 -4 16 -10 16 -5 0 -10 8 -10 17 0 9 -3 13 -7 9 -8 -8 -83 63
-83 79 0 7 -11 17 -24 23 -24 11 -165 164 -167 182 -1 6 -2 16 -3 23 -1 6 2
17 6 24 6 7 -1 21 -17 38 -14 16 -25 34 -25 41 0 8 -4 14 -9 14 -5 0 -23 14
-41 30 -41 39 -45 39 222 -5z m-1987 -225 c7 -23 -1 -40 -20 -40 -13 0 -25 21
-25 46 0 22 38 17 45 -6z m520 -1 c4 -12 2 -26 -3 -31 -17 -17 -42 -1 -42 27
0 32 35 35 45 4z m518 2 c6 -26 -7 -45 -27 -38 -23 9 -21 57 3 57 10 0 21 -9
24 -19z m1756 -10 c55 -55 31 -186 -35 -192 -59 -6 -84 27 -84 109 0 87 68
134 119 83z m756 13 c41 -16 60 -127 29 -172 -24 -35 -51 -46 -84 -32 -37 15
-54 58 -48 122 7 71 48 103 103 82z m-643 -81 c2 -61 6 -78 18 -78 12 0 16 17
18 78 3 74 4 77 27 77 24 0 25 -2 25 -79 0 -94 -17 -124 -70 -124 -53 0 -70
30 -70 124 0 77 1 79 25 79 23 0 24 -3 27 -77z m246 65 c7 -7 12 -24 12 -38 0
-14 -5 -31 -12 -38 -9 -9 -9 -15 0 -24 7 -7 12 -29 12 -51 0 -34 -2 -38 -22
-35 -18 2 -24 11 -26 36 -2 24 -8 32 -23 32 -15 0 -19 -7 -19 -35 0 -28 -4
-35 -20 -35 -19 0 -20 7 -20 100 l0 100 53 0 c29 0 58 -5 65 -12z m189 -36
l21 -47 1 48 c1 43 3 47 26 47 l25 0 0 -100 c0 -98 -1 -100 -23 -100 -18 0
-29 12 -49 53 l-27 52 0 -52 c-1 -46 -4 -53 -21 -53 -19 0 -20 7 -20 100 0 97
1 100 23 100 17 0 27 -12 44 -48z m327 26 c3 -13 9 -41 14 -63 l9 -40 13 63
c11 55 15 62 36 62 20 0 23 -4 19 -22 -3 -13 -14 -57 -23 -98 -16 -69 -20 -75
-44 -78 -23 -3 -28 1 -34 25 -3 15 -14 61 -24 101 l-18 72 24 0 c16 0 25 -7
28 -22z m246 3 c0 -15 -8 -21 -35 -23 -45 -4 -50 -22 -7 -26 26 -3 32 -7 32
-28 0 -20 -5 -24 -30 -24 -19 0 -30 -5 -30 -14 0 -15 29 -29 51 -24 8 2 15 -7
17 -19 3 -22 0 -23 -57 -23 l-61 0 0 100 0 100 60 0 c53 0 60 -2 60 -19z m82
-58 l3 -78 30 0 c23 0 31 -5 33 -22 3 -22 0 -23 -57 -23 l-61 0 0 100 c0 100
0 100 25 100 23 0 24 -3 27 -77z m218 52 c0 -18 -5 -25 -20 -25 -18 0 -20 -7
-20 -75 0 -73 -1 -75 -25 -75 -24 0 -25 2 -25 75 0 68 -2 75 -20 75 -15 0 -20
7 -20 25 0 24 2 25 65 25 63 0 65 -1 65 -25z m82 0 c6 -14 15 -25 19 -25 4 0
10 11 13 25 5 19 13 25 32 25 14 0 24 -4 22 -8 -1 -4 -19 -49 -38 -100 -30
-78 -38 -92 -57 -92 -26 0 -28 8 -12 44 12 25 9 39 -25 119 l-16 37 25 0 c17
0 29 -8 37 -25z m-2507 -175 c12 -14 16 -28 12 -50 -4 -16 -2 -42 4 -56 12
-33 -11 -74 -41 -74 -29 0 -54 44 -44 77 4 16 7 43 5 61 -5 56 30 79 64 42z
m135 -106 c0 -61 -4 -93 -10 -89 -5 3 -10 42 -10 86 0 43 -3 78 -7 78 -17 -3
-24 2 -18 11 3 6 15 10 26 10 17 0 19 -8 19 -96z m87 69 c-2 -10 -8 -25 -11
-33 -4 -10 2 -19 16 -25 34 -15 45 -57 24 -89 -19 -30 -42 -33 -68 -9 -24 21
-23 59 3 122 20 47 48 73 36 34z m-157 -13 c0 -5 -4 -10 -10 -10 -5 0 -10 5
-10 10 0 6 5 10 10 10 6 0 10 -4 10 -10z m1354 -222 c3 -16 1 -28 -4 -28 -5 0
-12 21 -16 48 -10 74 -18 78 -37 18 -10 -31 -21 -58 -26 -60 -4 -3 -15 20 -25
50 -9 30 -21 52 -25 49 -5 -2 -11 -27 -15 -55 -4 -28 -11 -48 -16 -45 -5 3 -7
11 -5 18 2 7 9 45 15 85 7 39 15 70 19 68 4 -3 16 -32 26 -65 10 -33 21 -58
26 -56 4 3 18 36 30 73 l23 67 13 -70 c7 -38 15 -82 17 -97z m66 67 c0 -46 -4
-87 -10 -90 -6 -4 -10 28 -10 90 0 62 4 94 10 90 6 -3 10 -44 10 -90z m220 33
c12 -35 25 -66 29 -70 3 -4 17 23 30 59 27 74 33 71 45 -27 4 -30 10 -63 12
-72 3 -10 1 -18 -5 -18 -5 0 -13 25 -16 55 -4 30 -11 55 -15 55 -4 0 -15 -25
-25 -55 -11 -30 -22 -52 -26 -47 -4 4 -16 32 -27 62 l-20 55 -7 -40 c-4 -22
-10 -51 -15 -65 -8 -24 -8 -24 -9 -3 -1 24 20 173 24 173 1 0 12 -28 25 -62z
m180 -34 c0 -61 -4 -93 -10 -89 -11 7 -14 168 -3 178 12 13 13 7 13 -89z m80
66 c16 -38 23 -38 38 2 6 17 15 29 18 25 4 -4 -1 -25 -11 -46 -10 -22 -15 -46
-12 -53 3 -7 12 -30 21 -50 21 -49 5 -49 -18 -1 l-18 38 -20 -38 c-27 -54 -34
-39 -9 18 21 47 21 47 1 85 -22 44 -24 50 -11 50 5 0 14 -13 21 -30z m310 15
c7 -8 10 -29 8 -47 -3 -18 -1 -43 5 -55 12 -27 -14 -73 -42 -73 -20 0 -58 37
-48 47 4 4 13 -1 20 -11 7 -10 22 -17 33 -14 26 4 31 48 8 65 -17 12 -17 14 0
26 13 10 16 20 12 35 -9 26 -34 29 -52 5 -11 -15 -13 -16 -14 -2 0 35 47 52
70 24z m-2215 -15 c3 -5 1 -10 -4 -10 -6 0 -11 5 -11 10 0 6 2 10 4 10 3 0 8
-4 11 -10z m-2560 -17 c-15 -35 -17 -61 -6 -67 12 -8 15 -36 4 -36 -5 0 -16
14 -25 31 -16 28 -16 33 -3 60 17 31 42 41 30 12z m5539 -10 c12 -24 12 -31
-2 -60 -9 -18 -19 -33 -24 -33 -11 0 -10 7 7 39 12 25 12 31 0 47 -17 22 -19
34 -5 34 5 0 16 -12 24 -27z m-3074 -73 c0 -5 -2 -10 -4 -10 -3 0 -8 5 -11 10
-3 6 -1 10 4 10 6 0 11 -4 11 -10z m129 -19 c9 -6 11 -16 7 -27 -5 -13 -9 -15
-14 -7 -4 7 -16 12 -27 13 -18 0 -85 7 -93 9 -2 1 0 6 3 11 8 12 105 13 124 1z
m66 -7 c6 0 18 3 27 8 9 5 19 4 23 -2 3 -5 12 -7 20 -3 11 4 15 -2 15 -21 0
-25 -10 -33 -23 -19 -11 11 -56 12 -62 2 -4 -5 -13 -3 -21 5 -18 18 -19 50 -1
39 6 -4 17 -8 22 -9z m-140 -389 c30 -67 26 -113 -5 -55 -11 19 -20 28 -20 20
-1 -12 -90 163 -90 177 0 3 20 -15 45 -39 24 -24 56 -70 70 -103z m1548 110
c-3 -9 -8 -14 -10 -11 -3 3 -2 9 2 15 9 16 15 13 8 -4z m-6 -47 c-3 -8 -6 -5
-6 6 -1 11 2 17 5 13 3 -3 4 -12 1 -19z m133 -14 c0 -19 -5 -24 -25 -24 -20 0
-25 5 -25 24 0 18 5 24 25 24 20 0 25 -6 25 -24z m68 3 c4 -20 -25 -34 -40
-19 -15 15 -1 44 19 40 10 -2 19 -11 21 -21z m60 -4 c3 -17 -2 -21 -17 -20
-15 1 -21 8 -21 25 0 31 34 26 38 -5z m50 2 c-1 -14 -8 -25 -15 -25 -7 0 -13
11 -13 25 0 15 6 25 15 25 10 0 14 -9 13 -25z m-311 -67 c-3 -8 -6 -5 -6 6 -1
11 2 17 5 13 3 -3 4 -12 1 -19z m-1388 -61 l-1 -52 -13 49 c-14 50 -12 71 6
61 5 -4 9 -30 8 -58z"/>
<path d="M868 9765 c-20 -44 29 -77 52 -35 8 14 8 26 0 40 -15 27 -38 25 -52
-5z"/>
<path d="M1010 9764 c0 -17 22 -14 28 4 2 7 -3 12 -12 12 -9 0 -16 -7 -16 -16z"/>
<path d="M3026 9755 c-3 -9 1 -18 10 -22 19 -7 39 11 30 26 -10 16 -33 13 -40
-4z"/>
<path d="M3517 9764 c-14 -14 -7 -35 11 -32 9 2 17 10 17 17 0 16 -18 25 -28
15z"/>
<path d="M3275 9010 c-3 -5 -2 -10 4 -10 5 0 13 5 16 10 3 6 2 10 -4 10 -5 0
-13 -4 -16 -10z"/>
<path d="M3669 8859 c-12 -23 -4 -84 12 -95 28 -17 51 53 33 100 -9 22 -31 20
-45 -5z"/>
<path d="M4447 8874 c-10 -10 -8 -86 2 -103 8 -12 12 -13 26 -1 21 18 17 103
-5 108 -9 1 -19 0 -23 -4z"/>
<path d="M4027 8874 c-14 -15 -6 -34 14 -34 14 0 19 5 17 17 -3 18 -20 27 -31
17z"/>
<path d="M2683 8704 c-7 -20 9 -49 28 -49 22 0 18 59 -4 63 -9 2 -20 -4 -24
-14z"/>
<path d="M2684 8626 c-3 -8 -4 -25 -2 -38 2 -17 9 -23 28 -23 31 0 39 34 15
59 -20 20 -34 20 -41 2z"/>
<path d="M2924 8596 c-10 -27 5 -68 24 -64 24 5 24 71 -1 76 -9 2 -20 -4 -23
-12z"/>
<path d="M4471 8114 c0 -11 3 -14 6 -6 3 7 2 16 -1 19 -3 4 -6 -2 -5 -13z"/>
<path d="M2581 7534 c0 -11 3 -14 6 -6 3 7 2 16 -1 19 -3 4 -6 -2 -5 -13z"/>
<path d="M2329 7209 l-13 -44 -10 38 c-12 45 -27 43 -40 -4 l-9 -34 -10 38
c-5 20 -13 37 -17 37 -8 0 14 -97 24 -107 3 -3 8 0 10 8 2 8 9 28 14 44 l9 30
12 -44 c14 -50 24 -45 40 23 15 61 7 73 -10 15z"/>
<path d="M2458 7198 c5 -71 10 -77 11 -15 0 31 -2 57 -7 57 -4 0 -6 -19 -4
-42z"/>
<path d="M3488 7228 c-6 -18 3 -98 11 -98 8 0 7 98 -1 106 -3 3 -8 -1 -10 -8z"/>
<path d="M2932 7183 c4 -59 24 -69 21 -11 -1 24 -2 46 -2 51 -1 4 -6 7 -12 7
-6 0 -9 -19 -7 -47z"/>
<path d="M2381 7206 c-18 -22 -10 -70 13 -74 10 -2 23 1 29 7 9 9 5 11 -12 9
-13 -2 -26 3 -28 10 -3 7 5 12 21 12 28 0 34 18 14 38 -16 16 -23 15 -37 -2z
m29 -16 c0 -5 -7 -10 -16 -10 -8 0 -12 5 -9 10 3 6 10 10 16 10 5 0 9 -4 9
-10z"/>
<path d="M2511 7206 c-7 -8 -11 -27 -9 -43 2 -22 8 -28 27 -28 13 0 27 7 29
15 5 13 3 13 -12 1 -20 -17 -40 -3 -34 25 3 13 11 18 27 16 20 -2 22 0 11 13
-16 19 -24 19 -39 1z"/>
<path d="M2591 7206 c-20 -24 -10 -70 16 -74 38 -6 53 57 19 80 -16 11 -22 10
-35 -6z m39 -30 c0 -31 -14 -40 -30 -21 -15 18 -6 45 15 45 9 0 15 -9 15 -24z"/>
<path d="M2683 7213 c-8 -3 -12 -21 -12 -46 l2 -42 6 34 c9 48 31 53 31 6 0
-21 4 -34 10 -30 6 3 10 20 10 36 0 42 23 33 31 -12 6 -34 6 -34 8 9 0 23 -2
42 -6 43 -5 0 -21 2 -38 3 -16 2 -36 1 -42 -1z"/>
<path d="M2802 7208 c-17 -17 -15 -53 3 -68 16 -14 45 -7 45 11 0 8 -4 9 -13
0 -8 -6 -17 -8 -20 -4 -14 13 -6 23 18 23 29 0 32 12 9 34 -19 19 -26 20 -42
4z m38 -18 c0 -5 -7 -10 -15 -10 -8 0 -15 5 -15 10 0 6 7 10 15 10 8 0 15 -4
15 -10z"/>
<path d="M2992 7208 c-23 -23 -11 -78 17 -78 38 0 54 46 25 74 -19 19 -26 20
-42 4z m38 -32 c0 -31 -14 -40 -30 -21 -15 18 -6 45 15 45 9 0 15 -9 15 -24z"/>
<path d="M3131 7206 c-7 -8 -11 -27 -9 -43 2 -22 8 -28 28 -28 20 0 26 6 28
28 3 27 -12 57 -28 57 -4 0 -13 -6 -19 -14z m34 -36 c0 -27 -22 -39 -31 -16
-8 22 3 49 19 43 6 -2 12 -14 12 -27z"/>
<path d="M3308 7212 c-13 -2 -18 -13 -18 -37 0 -19 5 -37 10 -40 6 -4 10 8 10
29 0 19 6 36 13 39 17 6 5 14 -15 9z"/>
<path d="M3403 7204 c-4 -11 2 -23 18 -35 13 -10 21 -21 17 -25 -4 -4 -15 -1
-24 7 -15 12 -17 12 -12 -1 7 -21 44 -25 52 -5 7 20 0 35 -19 35 -8 0 -17 5
-21 12 -5 8 0 9 15 5 14 -3 21 -1 18 6 -6 19 -36 20 -44 1z"/>
<path d="M3540 7206 c-15 -19 -9 -56 12 -69 34 -22 66 41 36 71 -16 16 -33 15
-48 -2z m43 -20 c3 -8 0 -22 -7 -31 -11 -15 -13 -15 -25 -1 -15 18 -8 46 13
46 7 0 16 -6 19 -14z"/>
<path d="M3633 7213 c-8 -3 -13 -22 -13 -44 0 -24 4 -38 10 -34 6 3 10 19 10
35 0 15 5 30 12 32 7 3 8 7 3 10 -6 3 -16 3 -22 1z"/>
<path d="M3686 7204 c-19 -18 -20 -28 -6 -55 11 -20 45 -26 55 -9 4 6 -3 9
-16 7 -12 -1 -24 4 -26 11 -3 7 5 12 21 12 28 0 34 18 14 38 -16 16 -23 15
-42 -4z m34 -14 c0 -5 -7 -10 -15 -10 -8 0 -15 5 -15 10 0 6 7 10 15 10 8 0
15 -4 15 -10z"/>
<path d="M3213 7175 c2 -36 5 -40 30 -43 26 -3 27 -1 27 37 0 49 -17 55 -22 9
-4 -42 -21 -39 -30 4 -6 31 -6 31 -5 -7z"/>
<path d="M632 6138 l3 -503 698 -3 697 -2 0 505 0 505 -700 0 -700 0 2 -502z
m801 380 c-20 -10 -23 -19 -24 -77 -3 -118 -2 -116 -24 -116 -13 0 -20 7 -20
20 0 18 -9 21 -70 26 l-70 5 83 2 c45 1 82 6 82 12 0 5 -37 10 -82 12 l-82 3
-8 44 c-4 25 -6 46 -4 48 4 4 185 30 216 31 l25 1 -22 -11z m-155 -181 c2 -10
-3 -17 -12 -17 -18 0 -29 16 -21 31 9 14 29 6 33 -14z m-108 -67 c0 -5 -7 -10
-15 -10 -18 0 -20 -20 -2 -21 10 0 10 -2 0 -6 -7 -2 -13 -11 -13 -19 0 -8 -4
-14 -10 -14 -11 0 -14 63 -3 73 10 11 43 8 43 -3z m150 -35 c0 -19 -4 -35 -10
-35 -5 0 -10 16 -10 35 0 19 5 35 10 35 6 0 10 -16 10 -35z m85 15 c21 -23 13
-50 -15 -50 -16 0 -20 6 -20 35 0 40 9 44 35 15z m-175 -31 c0 -14 -7 -19 -25
-19 -25 0 -32 10 -17 24 4 4 8 12 8 17 1 5 2 12 3 15 3 14 31 -20 31 -37z m49
19 c11 -28 6 -38 -19 -38 -15 0 -18 6 -16 28 4 33 4 32 16 32 6 0 14 -10 19
-22z m181 -28 c5 0 11 12 13 28 4 25 4 25 6 -5 1 -27 -3 -33 -19 -33 -16 0
-20 6 -19 33 2 30 2 30 6 5 2 -16 8 -28 13 -28z m69 34 c14 9 14 -3 0 -43 -15
-44 -24 -39 -26 16 -1 28 2 42 7 34 4 -8 13 -10 19 -7z m-469 -138 c0 -3 -4
-8 -10 -11 -5 -3 -10 -1 -10 4 0 6 5 11 10 11 6 0 10 -2 10 -4z m87 -2 c-3 -3
-12 -4 -19 -1 -8 3 -5 6 6 6 11 1 17 -2 13 -5z m120 0 c-3 -3 -12 -4 -19 -1
-8 3 -5 6 6 6 11 1 17 -2 13 -5z m200 0 c-3 -3 -12 -4 -19 -1 -8 3 -5 6 6 6
11 1 17 -2 13 -5z m140 0 c-3 -3 -12 -4 -19 -1 -8 3 -5 6 6 6 11 1 17 -2 13
-5z m46 -1 c-7 -2 -19 -2 -25 0 -7 3 -2 5 12 5 14 0 19 -2 13 -5z m70 0 c-7
-2 -19 -2 -25 0 -7 3 -2 5 12 5 14 0 19 -2 13 -5z m-868 -75 c5 4 5 1 1 -6 -4
-7 -13 -9 -19 -5 -6 4 -25 6 -42 6 -28 -1 -29 -1 -5 6 14 4 32 4 41 0 9 -5 20
-5 24 -1z m120 2 c3 -5 1 -10 -4 -10 -6 0 -11 5 -11 10 0 6 2 10 4 10 3 0 8
-4 11 -10z m235 0 c12 -8 11 -10 -7 -10 -13 0 -23 5 -23 10 0 13 11 13 30 0z
m259 -4 c-10 -8 -73 -16 -64 -7 6 5 21 11 35 13 25 4 37 1 29 -6z m141 4 c0
-5 -5 -10 -11 -10 -5 0 -7 5 -4 10 3 6 8 10 11 10 2 0 4 -4 4 -10z m145 0 c3
-5 -1 -10 -10 -10 -9 0 -13 5 -10 10 3 6 8 10 10 10 2 0 7 -4 10 -10z m125 0
c0 -5 -10 -10 -22 -10 -19 0 -20 2 -8 10 19 13 30 13 30 0z m-807 -7 c-7 -2
-19 -2 -25 0 -7 3 -2 5 12 5 14 0 19 -2 13 -5z m220 0 c-7 -2 -21 -2 -30 0
-10 3 -4 5 12 5 17 0 24 -2 18 -5z m222 -3 c-3 -5 -12 -7 -20 -3 -21 7 -19 13
6 13 11 0 18 -4 14 -10z m312 4 c-3 -3 -12 -4 -19 -1 -8 3 -5 6 6 6 11 1 17
-2 13 -5z m-655 -77 c20 4 21 3 6 -7 -19 -12 -58 2 -58 21 0 6 7 4 15 -4 8 -9
25 -13 37 -10z m528 8 c0 -8 -7 -15 -15 -15 -9 0 -12 6 -9 15 4 8 10 15 15 15
5 0 9 -7 9 -15z m-745 -5 c3 -5 1 -10 -4 -10 -6 0 -11 5 -11 10 0 6 2 10 4 10
3 0 8 -4 11 -10z m95 0 c0 -5 -4 -10 -10 -10 -5 0 -10 5 -10 10 0 6 5 10 10
10 6 0 10 -4 10 -10z m204 2 c2 -4 -4 -8 -14 -8 -10 0 -16 4 -14 8 3 4 9 8 14
8 5 0 11 -4 14 -8z m96 -6 c0 -10 -7 -12 -22 -8 -21 5 -21 6 -2 13 10 4 20 8
22 8 1 1 2 -5 2 -13z m65 4 c-3 -5 -12 -10 -18 -10 -7 0 -6 4 3 10 19 12 23
12 15 0z m35 0 c0 -5 -5 -10 -11 -10 -5 0 -7 5 -4 10 3 6 8 10 11 10 2 0 4 -4
4 -10z m85 0 c19 -8 19 -9 -2 -9 -12 -1 -25 4 -28 9 -7 12 2 12 30 0z m105 0
c0 -5 -4 -10 -10 -10 -5 0 -10 5 -10 10 0 6 5 10 10 10 6 0 10 -4 10 -10z m34
-75 c3 -8 1 -15 -4 -15 -6 0 -10 7 -10 15 0 8 2 15 4 15 2 0 6 -7 10 -15z
m-744 -5 c0 -5 -5 -10 -11 -10 -5 0 -7 5 -4 10 3 6 8 10 11 10 2 0 4 -4 4 -10z
m615 0 c4 -6 -6 -10 -22 -10 -22 0 -25 2 -13 10 19 12 27 12 35 0z m90 0 c-3
-5 -12 -10 -18 -10 -7 0 -6 4 3 10 19 12 23 12 15 0z m-592 -7 c-7 -2 -19 -2
-25 0 -7 3 -2 5 12 5 14 0 19 -2 13 -5z m777 -93 c5 9 9 8 13 -3 4 -10 0 -14
-11 -13 -9 2 -17 8 -18 15 -2 8 -1 8 3 0 4 -8 7 -8 13 1z"/>
<path d="M1370 6485 c0 -16 6 -25 15 -25 9 0 15 9 15 25 0 16 -6 25 -15 25 -9
0 -15 -9 -15 -25z"/>
<path d="M1273 6493 c-21 -7 -15 -33 7 -33 11 0 20 6 20 14 0 18 -11 25 -27
19z"/>
<path d="M1310 6480 c0 -15 7 -20 25 -20 18 0 25 5 25 20 0 15 -7 20 -25 20
-18 0 -25 -5 -25 -20z"/>
<path d="M1230 6475 c0 -8 5 -15 10 -15 6 0 10 7 10 15 0 8 -4 15 -10 15 -5 0
-10 -7 -10 -15z"/>
<path d="M1236 6442 c-2 -4 -1 -14 5 -22 7 -12 9 -10 9 8 0 23 -5 28 -14 14z"/>
<path d="M1267 6444 c-9 -10 4 -34 19 -34 8 0 14 9 14 20 0 19 -19 27 -33 14z"/>
<path d="M1315 6441 c-9 -16 3 -31 26 -31 14 0 19 6 17 17 -4 20 -33 29 -43
14z"/>
<path d="M1375 6440 c-4 -6 -3 -16 3 -22 6 -6 12 -6 17 2 4 6 3 16 -3 22 -6 6
-12 6 -17 -2z"/>
<path d="M1391 6224 c0 -11 3 -14 6 -6 3 7 2 16 -1 19 -3 4 -6 -2 -5 -13z"/>
<path d="M2282 6138 l3 -503 700 0 700 0 0 500 0 500 -703 3 -702 2 2 -502z
m636 380 c19 -19 35 -23 85 -23 71 0 83 -14 30 -33 -20 -7 -39 -14 -41 -17
-11 -11 33 -45 58 -45 40 0 43 -11 10 -31 -17 -11 -30 -23 -30 -29 0 -5 -4
-10 -10 -10 -5 0 -10 12 -10 27 0 26 -25 63 -42 63 -5 0 -18 -21 -28 -46 -11
-25 -24 -43 -28 -40 -5 3 -4 37 1 76 8 66 7 73 -12 94 -37 39 -23 51 17 14z
m-378 -260 c7 -18 9 -19 9 -5 1 9 5 17 10 17 13 0 -3 -63 -17 -68 -7 -2 -12 6
-13 20 l0 23 -10 -23 c-5 -13 -13 -21 -18 -18 -12 7 -20 66 -9 66 4 0 8 -8 9
-17 0 -14 2 -13 9 5 5 12 12 22 15 22 3 0 10 -10 15 -22z m157 -40 c-2 -13 -4
-3 -4 22 0 25 2 35 4 23 2 -13 2 -33 0 -45z m170 0 c-2 -13 -4 -3 -4 22 0 25
2 35 4 23 2 -13 2 -33 0 -45z m221 44 c2 -8 -3 -10 -15 -5 -13 4 -11 1 6 -14
14 -11 21 -25 17 -31 -9 -15 -43 -15 -52 -1 -4 8 0 9 15 4 25 -8 28 3 4 20
-10 7 -14 19 -10 29 7 19 28 17 35 -2z m-328 -27 c0 -28 -4 -35 -20 -35 -26 0
-27 37 -2 56 23 18 22 19 22 -21z m170 0 c0 -28 -4 -35 -20 -35 -26 0 -27 37
-2 56 23 18 22 19 22 -21z m206 21 c8 -8 14 -25 13 -38 -1 -23 -1 -23 -9 2 -8
24 -8 24 -9 3 -2 -37 -21 -26 -21 12 0 39 4 42 26 21z m114 -32 c0 -14 -6 -24
-14 -24 -8 0 -17 -8 -19 -17 -3 -10 -5 1 -6 24 -1 25 4 43 12 46 19 7 27 -2
27 -29z m159 -2 l0 -27 -11 25 -11 25 -7 -25 -8 -25 -1 27 c-1 25 15 40 32 31
4 -2 7 -16 6 -31z m-781 5 c4 -20 -25 -34 -40 -19 -15 15 -1 44 19 40 10 -2
19 -11 21 -21z m34 -2 c-2 -14 -8 -25 -13 -25 -5 0 -9 11 -9 25 0 14 6 25 14
25 9 0 12 -8 8 -25z m158 10 c0 -5 5 -3 11 5 8 12 9 10 7 -9 -2 -16 -10 -25
-25 -27 -13 -2 -23 0 -23 5 0 5 -2 16 -5 23 -4 9 2 14 15 14 11 0 20 -5 20
-11z m170 0 c0 -8 -6 -15 -12 -15 -9 0 -8 -4 2 -10 13 -8 13 -10 -2 -10 -21 0
-32 16 -24 35 7 20 36 19 36 0z m197 -22 c-3 -10 -5 -4 -5 12 0 17 2 24 5 18
2 -7 2 -21 0 -30z m130 21 c5 -13 -26 -54 -42 -54 -3 0 -5 16 -5 35 0 29 4 35
20 35 11 0 23 -7 27 -16z m33 -9 c0 -14 -4 -25 -10 -25 -11 0 -14 33 -3 43 11
11 13 8 13 -18z m130 -4 c0 -28 -24 -60 -37 -47 -3 3 -8 22 -10 41 -3 32 -1
35 22 35 21 0 25 -5 25 -29z m-537 -198 c-7 -2 -19 -2 -25 0 -7 3 -2 5 12 5
14 0 19 -2 13 -5z m154 1 c-3 -3 -12 -4 -19 -1 -8 3 -5 6 6 6 11 1 17 -2 13
-5z m58 -4 c3 -6 -1 -7 -9 -4 -18 7 -21 14 -7 14 6 0 13 -4 16 -10z m-258 -72
c-3 -8 -6 -5 -6 6 -1 11 2 17 5 13 3 -3 4 -12 1 -19z"/>
<path d="M2730 6225 c0 -8 5 -15 10 -15 6 0 10 7 10 15 0 8 -4 15 -10 15 -5 0
-10 -7 -10 -15z"/>
<path d="M2900 6225 c0 -8 5 -15 10 -15 6 0 10 7 10 15 0 8 -4 15 -10 15 -5 0
-10 -7 -10 -15z"/>
<path d="M3220 6225 c0 -8 5 -15 10 -15 6 0 10 7 10 15 0 8 -4 15 -10 15 -5 0
-10 -7 -10 -15z"/>
<path d="M2595 6231 c-3 -5 -1 -12 5 -16 5 -3 10 1 10 9 0 18 -6 21 -15 7z"/>
<path d="M3290 6224 c0 -8 5 -12 10 -9 6 4 8 11 5 16 -9 14 -15 11 -15 -7z"/>
<path d="M3445 6231 c-3 -5 -1 -12 5 -16 5 -3 10 1 10 9 0 18 -6 21 -15 7z"/>
<path d="M3932 6138 l3 -503 700 0 700 0 3 503 2 502 -705 0 -705 0 2 -502z
m816 275 l3 -93 -116 0 -115 0 0 88 c0 49 3 92 7 96 4 3 54 5 112 4 l106 -3 3
-92z m-298 -143 c0 -5 -8 -10 -17 -10 -16 -1 -16 -2 -3 -13 14 -11 14 -14 -2
-29 -17 -17 -18 -17 -18 15 0 19 3 37 7 40 10 11 33 8 33 -3z m253 -56 c-3 -8
-14 -14 -24 -14 -16 0 -19 7 -19 41 l0 40 24 -26 c14 -15 22 -33 19 -41z m-98
15 c0 -16 -3 -29 -6 -29 -9 0 -19 53 -12 63 9 14 18 -3 18 -34z m-95 -5 c0
-17 -5 -24 -20 -24 -23 0 -26 10 -8 28 9 9 9 12 -2 12 -13 0 -13 1 0 9 19 13
30 4 30 -25z m54 10 c10 -26 7 -34 -14 -34 -11 0 -20 5 -20 11 0 5 6 7 13 3
10 -6 10 -4 0 7 -17 17 -16 29 1 29 8 0 17 -7 20 -16z m177 -6 l2 -23 4 23 c6
30 23 28 23 -4 0 -21 -4 -25 -22 -22 -23 3 -40 48 -19 48 6 0 12 -10 12 -22z
m60 10 c0 -10 2 -10 6 0 2 6 8 12 13 12 11 0 -6 -61 -21 -74 -9 -8 -10 -6 -6
7 4 9 2 28 -3 42 -6 16 -6 25 0 25 6 0 10 -6 11 -12z m-321 -208 c0 -5 -2 -10
-4 -10 -3 0 -8 5 -11 10 -3 6 -1 10 4 10 6 0 11 -4 11 -10z m97 -6 c-3 -3 -12
-4 -19 -1 -8 3 -5 6 6 6 11 1 17 -2 13 -5z m238 -76 c6 -4 2 -8 -7 -8 -10 0
-18 7 -18 17 0 9 3 12 8 7 4 -5 12 -12 17 -16z m162 0 c-3 -8 -6 -5 -6 6 -1
11 2 17 5 13 3 -3 4 -12 1 -19z"/>
<path d="M4532 6478 c3 -9 36 -14 106 -16 86 -2 102 0 102 13 0 12 -17 15
-106 15 -80 0 -105 -3 -102 -12z"/>
<path d="M4534 6396 c-3 -8 -4 -25 -2 -38 3 -22 6 -23 103 -23 l100 0 3 38 3
37 -101 0 c-78 0 -102 -3 -106 -14z m41 -36 c3 -5 -1 -10 -10 -10 -9 0 -13 5
-10 10 3 6 8 10 10 10 2 0 7 -4 10 -10z m65 0 c0 -5 -12 -10 -27 -10 -22 0
-25 2 -13 10 20 13 40 13 40 0z"/>
<path d="M4675 6231 c-3 -5 -1 -12 5 -16 5 -3 10 1 10 9 0 18 -6 21 -15 7z"/>
<path d="M2646 5308 c-9 -12 -16 -33 -16 -45 0 -23 32 -63 50 -63 18 0 50 40
50 63 0 31 -27 67 -50 67 -10 0 -26 -10 -34 -22z m59 -43 c0 -36 -2 -40 -25
-40 -20 0 -26 6 -28 28 -5 42 5 59 30 55 20 -3 23 -9 23 -43z"/>
<path d="M3042 5313 c-5 -10 -6 -38 -2 -63 l7 -45 2 38 c0 20 6 37 12 37 8 0
8 5 -1 15 -9 10 -9 15 -1 15 6 0 11 5 11 10 0 16 -19 11 -28 -7z"/>
<path d="M3092 5313 c-5 -10 -6 -38 -2 -63 7 -43 8 -44 9 -10 2 19 4 47 6 63
4 31 0 35 -13 10z"/>
<path d="M2853 5293 c-8 -3 -12 -21 -11 -46 1 -38 2 -39 5 -9 3 18 11 36 19
39 8 3 14 9 14 14 0 10 -8 10 -27 2z"/>
<path d="M2964 5292 c-34 -23 -19 -86 19 -80 26 4 36 50 16 74 -13 16 -19 17
-35 6z m31 -42 c0 -27 -22 -39 -31 -16 -8 22 3 49 19 43 6 -2 12 -14 12 -27z"/>
<path d="M3141 5286 c-18 -22 -10 -70 13 -74 10 -2 23 2 30 8 8 9 6 11 -11 5
-17 -5 -23 -2 -23 9 0 10 9 16 25 16 29 0 32 12 9 34 -19 20 -28 20 -43 2z
m39 -16 c0 -5 -7 -10 -15 -10 -8 0 -15 5 -15 10 0 6 7 10 15 10 8 0 15 -4 15
-10z"/>
<path d="M3233 5293 c-8 -3 -12 -21 -11 -46 1 -38 2 -39 5 -9 3 18 11 36 19
39 8 3 14 9 14 14 0 10 -8 10 -27 2z"/>
<path d="M3287 5294 c-14 -14 -6 -43 13 -49 11 -3 20 -11 20 -16 0 -6 -9 -7
-20 -4 -11 4 -20 2 -20 -4 0 -16 47 -13 53 4 4 8 -5 23 -21 35 -26 21 -26 21
-4 17 15 -4 22 -1 19 6 -4 14 -30 21 -40 11z"/>
<path d="M2750 5266 c0 -40 11 -56 36 -56 22 0 24 4 23 43 -2 42 -2 42 -8 8
-8 -48 -31 -53 -31 -7 0 20 -4 36 -10 36 -5 0 -10 -11 -10 -24z"/>
<path d="M3317 4628 c6 -11 31 -10 37 1 3 5 -5 8 -18 7 -13 0 -22 -4 -19 -8z"/>
<path d="M640 3635 l0 -695 695 0 695 0 0 695 0 695 -695 0 -695 0 0 -695z
m547 364 c-12 -7 -16 -17 -12 -32 5 -20 5 -20 -5 -4 -12 20 2 47 24 47 6 0 3
-5 -7 -11z m90 -36 c-3 -10 -5 -4 -5 12 0 17 2 24 5 18 2 -7 2 -21 0 -30z
m-17 1 c0 -8 -4 -14 -10 -14 -5 0 -10 9 -10 21 0 11 5 17 10 14 6 -3 10 -13
10 -21z m50 4 c0 -16 -3 -19 -11 -11 -6 6 -8 16 -5 22 11 17 16 13 16 -11z
m133 2 c-3 -11 -7 -20 -9 -20 -2 0 -4 9 -4 20 0 11 4 20 9 20 5 0 7 -9 4 -20z
m43 11 c12 9 12 6 3 -20 -13 -37 -14 -37 -22 4 -4 17 -4 24 -1 17 5 -10 9 -10
20 -1z m-69 -23 c-3 -8 -6 -5 -6 6 -1 11 2 17 5 13 3 -3 4 -12 1 -19z m-47 -8
c0 -5 -5 -10 -11 -10 -5 0 -7 5 -4 10 3 6 8 10 11 10 2 0 4 -4 4 -10z m-410
-115 c17 -20 6 -43 -25 -51 -16 -4 -25 -13 -25 -25 0 -10 -4 -19 -10 -19 -5 0
-10 25 -10 55 0 54 1 55 29 55 16 0 34 -7 41 -15z m495 -22 l20 -37 6 40 c6
38 6 37 8 -13 0 -29 -2 -53 -6 -53 -5 0 -17 15 -27 33 l-20 32 -7 -35 c-6 -32
-6 -30 -8 18 0 28 2 52 7 52 4 0 16 -17 27 -37z m-285 -19 c0 -44 -1 -45 -27
-42 -22 2 -29 9 -31 31 -3 22 1 30 17 34 12 3 21 9 21 14 0 5 5 9 10 9 6 0 10
-21 10 -46z m185 -4 c1 -22 -1 -40 -5 -40 -9 0 -18 62 -12 80 7 20 15 2 17
-40z m325 14 c7 -17 7 -31 0 -42 -8 -14 -9 -12 -10 10 0 15 -5 30 -10 33 -6 4
-8 11 -5 16 10 14 15 11 25 -17z m-668 4 c-7 -7 -12 -23 -12 -36 0 -13 -4 -20
-10 -17 -11 7 -14 48 -3 58 3 4 13 7 22 7 12 0 12 -3 3 -12z m73 -23 c0 -25
-4 -30 -25 -30 -16 0 -26 6 -28 18 -6 30 6 49 30 45 18 -2 23 -9 23 -33z m130
-18 c6 1 13 12 17 25 5 20 6 18 7 -9 1 -29 -2 -33 -24 -33 -22 0 -25 4 -24 38
1 36 2 36 8 7 3 -16 11 -29 16 -28z m95 43 c0 -5 -7 -7 -15 -4 -11 5 -15 -1
-15 -21 0 -22 3 -25 21 -20 15 5 19 4 15 -4 -11 -17 -43 -13 -50 5 -10 26 3
54 25 54 10 0 19 -4 19 -10z m258 -27 c3 -30 1 -33 -22 -33 -29 0 -36 27 -11
36 8 4 15 10 15 15 0 4 -7 6 -15 3 -8 -4 -15 -1 -15 6 0 6 10 10 23 8 17 -2
23 -11 25 -35z m80 0 c2 -19 -1 -33 -7 -33 -6 0 -11 14 -11 31 0 17 -4 28 -10
24 -5 -3 -10 -17 -10 -31 0 -13 -4 -24 -10 -24 -11 0 -14 53 -3 64 4 4 16 6
28 4 15 -2 21 -12 23 -35z m110 15 c2 -13 -3 -18 -17 -18 -12 0 -21 -5 -21
-11 0 -6 7 -9 15 -5 8 3 15 1 15 -4 0 -13 -37 -13 -45 1 -4 5 -4 21 -1 35 5
19 12 25 29 22 12 -2 23 -11 25 -20z m-557 -158 c23 -13 26 -76 5 -106 -12
-15 -19 -17 -32 -8 -10 6 -20 17 -23 25 -4 12 -2 12 12 1 9 -8 21 -11 27 -7
17 11 11 23 -12 27 -26 3 -36 41 -18 64 15 17 16 17 41 4z m103 -6 c34 -33 9
-120 -32 -112 -24 5 -25 25 -1 24 12 -1 24 5 26 12 3 7 -5 12 -20 12 -22 0
-37 16 -37 40 0 11 29 40 40 40 5 0 16 -7 24 -16z m107 -11 c20 -54 -20 -123
-55 -94 -9 7 -13 17 -10 23 3 5 11 4 19 -2 15 -12 35 -6 35 11 0 5 -6 9 -12 8
-39 -5 -58 24 -38 61 16 29 48 25 61 -7z m87 15 c17 -17 15 -33 -3 -18 -12 10
-15 10 -15 -3 0 -8 7 -20 15 -27 21 -17 19 -57 -4 -69 -14 -8 -22 -6 -35 8
-20 22 -21 38 -1 21 12 -10 15 -9 15 8 0 11 -7 25 -15 32 -8 7 -15 18 -15 24
0 15 20 36 35 36 6 0 16 -5 23 -12z m308 -577 c5 1 14 0 19 -1 6 -1 25 -1 43
0 28 1 32 -1 32 -24 0 -30 -24 -35 -39 -8 -8 14 -10 14 -11 2 0 -12 -14 -16
-61 -18 -59 -2 -61 -1 -55 20 3 13 6 26 6 30 0 4 6 5 14 2 8 -3 17 0 21 6 6 9
9 9 15 1 4 -7 11 -11 16 -10z m-1016 -8 c0 -14 2 -15 9 -4 5 7 25 15 45 16 34
3 36 2 36 -26 0 -28 -2 -29 -44 -29 -25 0 -48 5 -52 11 -4 8 -9 7 -15 -2 -13
-22 -20 -4 -10 25 12 29 31 35 31 9z m147 2 c27 -19 20 -45 -12 -45 -15 0 -25
7 -28 22 -11 39 5 47 40 23z m153 -24 c0 -15 -9 -18 -54 -20 -54 -1 -74 8 -60
30 4 8 9 7 14 -2 7 -10 12 -10 23 -1 16 14 38 12 49 -3 4 -6 8 -2 8 8 0 10 5
15 10 12 6 -3 10 -14 10 -24z"/>
<path d="M912 3818 c7 -19 38 -22 38 -4 0 10 -9 16 -21 16 -12 0 -19 -5 -17
-12z"/>
<path d="M1124 3796 c-6 -17 2 -36 17 -36 12 0 12 37 -1 45 -6 3 -13 -1 -16
-9z"/>
<path d="M1052 3797 c-13 -15 1 -42 17 -33 13 9 15 33 2 40 -5 3 -13 0 -19 -7z"/>
<path d="M1535 3770 c-3 -5 -1 -10 4 -10 6 0 11 5 11 10 0 6 -2 10 -4 10 -3 0
-8 -4 -11 -10z"/>
<path d="M1163 3614 c-7 -18 11 -39 26 -30 17 11 13 46 -4 46 -9 0 -18 -7 -22
-16z"/>
<path d="M1263 3614 c-8 -21 13 -42 28 -27 13 13 5 43 -11 43 -6 0 -13 -7 -17
-16z"/>
<path d="M1363 3614 c-8 -20 8 -36 26 -25 15 10 8 41 -9 41 -6 0 -13 -7 -17
-16z"/>
<path d="M1461 3614 c0 -11 3 -14 6 -6 3 7 2 16 -1 19 -3 4 -6 -2 -5 -13z"/>
<path d="M1480 3554 c0 -8 5 -12 10 -9 6 3 10 10 10 16 0 5 -4 9 -10 9 -5 0
-10 -7 -10 -16z"/>
<path d="M4669 4233 c-1 -5 -1 -15 0 -25 1 -9 -2 -19 -7 -22 -6 -3 -98 -6
-205 -6 -152 -1 -199 -4 -213 -15 -11 -8 -14 -15 -9 -15 7 0 9 -188 7 -550
l-2 -550 167 -1 c563 -2 647 0 661 18 19 26 17 1062 -2 1089 -13 17 -30 19
-165 22 l-151 3 0 30 c0 27 -2 29 -40 29 -22 0 -41 -3 -41 -7z m386 -618 l0
-530 -240 0 -240 0 -8 190 c-4 105 -6 340 -5 523 3 283 5 334 18 342 9 6 111
9 245 7 l230 -2 0 -530z m-558 179 c-3 -3 -12 -4 -19 -1 -8 3 -5 6 6 6 11 1
17 -2 13 -5z"/>
<path d="M4770 3677 c-16 -36 -18 -50 -9 -82 6 -21 18 -49 26 -61 8 -13 16
-29 17 -36 6 -34 36 -87 57 -102 31 -21 42 -20 29 3 -14 28 -13 41 6 41 8 0
12 5 9 10 -4 6 5 10 19 10 14 0 26 5 26 10 0 6 -7 10 -16 10 -8 0 -12 5 -9 10
3 6 19 10 36 10 16 0 29 5 29 10 0 6 6 10 14 10 7 0 19 14 26 30 10 25 10 37
-1 67 -8 20 -21 40 -30 46 -39 24 -116 -83 -125 -171 -1 -19 -5 -36 -7 -38 -6
-6 -60 63 -81 103 -20 40 -21 95 -1 133 9 17 13 30 10 30 -4 0 -15 -19 -25
-43z"/>
<path d="M2506 4212 c-14 -17 -16 -74 -16 -584 0 -440 3 -568 13 -576 6 -5 57
-10 112 -10 55 0 253 -3 440 -7 l340 -8 28 22 27 22 0 564 0 565 -25 16 c-23
15 -57 16 -318 11 -160 -4 -338 -6 -394 -6 -86 0 -103 -3 -103 -16 0 -19 -16
-20 -27 -2 -14 24 -58 29 -77 9z m164 -66 c-14 -14 -24 0 -16 21 6 15 8 15 16
3 6 -9 5 -19 0 -24z m639 8 c2 -2 -28 -4 -68 -4 -68 0 -72 -1 -81 -26 -6 -14
-14 -22 -20 -19 -15 9 -33 -40 -26 -70 6 -25 10 -27 41 -22 28 5 37 2 46 -15
9 -17 13 -18 21 -7 7 11 11 11 15 2 2 -7 12 -13 21 -13 25 0 94 26 135 50 l35
21 7 -76 c9 -91 2 -851 -8 -861 -6 -6 -497 -7 -503 -1 -2 2 -7 1026 -5 1050 1
8 381 -2 390 -9z m75 -89 c-38 -47 -65 -56 -105 -34 -16 8 -25 7 -37 -4 -17
-15 -42 -13 -42 4 0 5 9 9 19 9 11 0 22 4 25 9 3 4 29 11 57 13 34 4 58 12 72
27 40 40 49 22 11 -24z m-770 -342 c3 -115 11 -300 17 -412 10 -201 7 -279 -5
-139 -30 333 -46 758 -28 758 6 0 12 -80 16 -207z m-28 -450 c-1 -38 -5 -68
-11 -68 -5 0 -11 30 -13 68 -3 53 -1 67 11 67 11 0 14 -15 13 -67z m4 -103 c0
-5 -2 -10 -4 -10 -3 0 -8 5 -11 10 -3 6 -1 10 4 10 6 0 11 -4 11 -10z"/>
<path d="M3055 3925 c-5 -2 -36 -6 -67 -10 l-58 -6 0 -84 c0 -92 -3 -87 72
-100 33 -6 42 -3 86 34 36 30 52 54 64 90 8 27 12 54 9 60 -7 11 -88 24 -106
16z"/>
<path d="M1192 2493 l-73 -36 28 -23 c32 -27 25 -31 -17 -9 -28 14 -31 14 -50
-5 -42 -42 -16 -97 55 -118 39 -11 46 -16 31 -22 -19 -6 -19 -7 0 -12 14 -4
25 -20 34 -54 7 -27 21 -59 31 -72 34 -44 149 -422 149 -491 0 -17 -4 -22 -16
-17 -42 16 -130 85 -244 191 -199 185 -260 218 -328 175 -58 -36 -67 -100 -26
-195 15 -33 29 -74 31 -91 6 -39 226 -294 253 -294 10 0 49 -14 86 -32 158
-74 264 -25 280 129 l7 60 61 -15 c105 -24 230 -3 318 55 101 68 117 192 49
403 -17 52 -30 104 -29 115 0 11 -7 40 -16 64 -21 58 -20 84 4 99 12 7 20 23
20 40 0 32 -30 102 -52 119 -15 13 -88 7 -88 -7 0 -4 -12 -10 -27 -13 -16 -3
-41 -10 -57 -17 -28 -10 -28 -11 -11 -30 10 -11 23 -20 28 -20 6 0 2 9 -8 20
-16 18 -16 20 -2 20 9 0 20 -7 25 -16 8 -14 14 -14 50 -3 23 7 42 16 42 21 0
5 -4 6 -10 3 -5 -3 -18 -1 -27 4 -17 10 -17 10 0 11 9 0 17 6 17 12 0 28 38
-30 43 -65 6 -38 5 -39 -33 -55 -25 -11 -40 -24 -40 -34 0 -26 -14 -22 -30 7
-7 13 -16 22 -21 20 -4 -3 -17 11 -28 31 -26 43 -39 39 -17 -5 l16 -31 -25 10
c-35 13 -82 13 -91 -1 -3 -6 -17 -8 -30 -5 -44 11 -43 -54 2 -98 20 -21 93
-21 122 0 12 8 26 12 32 9 5 -3 20 0 32 7 13 7 35 14 49 16 23 2 29 -4 48 -42
11 -25 21 -50 21 -55 0 -5 7 -16 15 -24 35 -36 95 -242 95 -330 0 -60 -18 -95
-71 -141 -71 -61 -183 -86 -298 -66 -38 6 -74 17 -79 23 -5 7 -12 34 -16 61
-9 73 -52 237 -93 356 -20 58 -37 121 -39 141 -2 19 -8 48 -14 63 -23 61 -3
92 83 128 10 4 17 18 17 33 0 15 4 24 10 20 5 -3 6 -13 3 -21 -5 -14 -3 -14
15 -3 23 14 42 50 42 78 0 26 -6 29 -48 21 -24 -4 -36 -11 -34 -20 6 -28 -8
-62 -24 -56 -9 3 -25 -4 -38 -19 -30 -32 -39 -31 -53 5 -10 28 -9 30 23 40 44
15 50 26 27 53 l-18 21 28 -18 c16 -10 31 -16 33 -13 5 5 -44 47 -55 47 -3 0
-39 -17 -79 -37z m14 -25 c-10 -6 -20 -7 -24 -3 -9 8 20 25 31 18 5 -3 2 -10
-7 -15z m-303 -494 c18 -9 84 -67 147 -129 123 -119 215 -192 294 -232 l49
-25 -5 -62 c-6 -73 -26 -108 -73 -130 -42 -20 -81 -20 -136 -1 -52 19 -79 42
-79 68 0 34 -228 284 -263 289 -27 4 -67 81 -74 141 -9 80 62 121 140 81z"/>
<path d="M4556 2417 c-14 -21 -17 -40 -14 -82 4 -46 10 -62 39 -91 18 -19 50
-40 71 -46 34 -10 38 -15 38 -43 0 -36 13 -55 54 -81 l28 -18 -6 31 c-4 19 -3
34 3 38 7 4 11 -7 11 -29 0 -64 62 -101 121 -72 28 14 34 14 52 1 27 -19 37
-19 37 0 0 8 5 15 12 15 6 0 8 -3 5 -6 -9 -10 12 -44 26 -44 27 0 87 83 87
120 0 5 -8 17 -17 26 -15 15 -15 17 -2 12 11 -4 50 27 128 102 104 101 112
111 109 144 -1 19 -6 32 -10 30 -5 -3 -6 -9 -3 -14 3 -4 -3 -7 -13 -6 -9 0
-16 -5 -14 -12 1 -8 -2 -11 -7 -8 -5 4 -25 -8 -44 -26 -19 -18 -41 -32 -49
-30 -7 1 -46 -20 -86 -48 -78 -55 -92 -59 -92 -32 0 23 -25 46 -76 72 -48 25
-62 25 -94 0 -14 -11 -31 -20 -38 -20 -7 0 -11 -4 -8 -9 3 -5 -1 -12 -10 -15
-8 -3 -13 -10 -9 -15 3 -5 1 -12 -5 -16 -5 -3 -10 3 -10 14 0 10 15 31 33 45
17 15 37 30 42 35 6 4 17 11 25 14 8 3 -12 6 -45 5 -52 -2 -64 -6 -92 -32 -18
-16 -34 -28 -37 -25 -2 2 -20 30 -40 62 -23 36 -43 57 -55 57 -11 0 -21 6 -23
12 -3 8 -12 1 -22 -15z m308 -142 c-20 -19 -39 -33 -42 -30 -8 8 50 65 66 65
7 0 -3 -16 -24 -35z m66 12 c0 -2 -16 -19 -36 -38 -26 -24 -33 -28 -25 -12 12
23 61 64 61 50z m179 -59 c-28 -22 -54 -37 -57 -33 -4 4 4 15 18 24 13 9 36
26 50 38 14 11 28 19 33 16 4 -2 -16 -22 -44 -45z m-105 -70 c-6 -9 -34 1 -34
12 0 5 6 10 13 13 13 4 28 -13 21 -25z m47 -39 c-11 -12 -23 -20 -27 -17 -3 4
4 16 16 28 28 28 38 18 11 -11z"/>
<path d="M2461 2372 c-67 -36 -71 -54 -71 -355 0 -287 4 -318 51 -351 13 -9
24 -22 24 -29 0 -18 48 -20 140 -7 112 16 205 40 205 54 0 6 12 22 26 35 l25
24 -3 253 c-2 155 -7 257 -13 263 -6 6 -57 24 -115 41 -59 18 -116 42 -133 56
-16 13 -39 24 -52 24 -13 0 -29 2 -37 5 -7 3 -28 -3 -47 -13z"/>
<path d="M3418 2189 c-46 -30 -48 -33 -48 -79 0 -43 4 -51 42 -86 l43 -38 4
-179 c3 -169 4 -178 22 -174 10 3 21 1 24 -4 3 -4 12 -6 20 -2 12 4 15 36 15
184 l0 178 29 17 c81 48 82 157 1 199 -47 24 -99 19 -152 -16z"/>
<path d="M3143 2166 c-30 -31 -31 -98 -3 -143 22 -36 43 -41 86 -18 50 26 54
12 54 -181 l0 -174 24 6 c13 3 27 1 31 -5 18 -31 25 16 25 183 0 179 0 183
-27 237 -20 38 -42 63 -77 87 -57 38 -83 40 -113 8z"/>
<path d="M4441 1956 c-12 -13 -26 -39 -31 -58 -8 -28 -29 -49 -108 -107 -56
-42 -99 -82 -102 -94 -4 -14 -52 -54 -130 -108 -112 -77 -125 -89 -128 -119
-2 -17 0 -30 5 -27 4 3 69 46 143 96 74 50 141 89 148 86 7 -2 63 25 125 60
61 36 117 65 123 65 7 0 15 -11 18 -25 7 -28 128 -105 167 -105 16 0 32 -12
51 -39 33 -46 81 -71 138 -71 44 0 68 9 106 43 35 30 31 51 -9 54 -42 3 -99
27 -117 48 -11 13 -83 33 -102 27 -12 -3 -9 17 7 48 8 16 31 41 51 56 32 25
35 32 30 62 -11 71 -71 103 -131 71 -38 -21 -65 -16 -32 5 50 30 54 35 25 36
-16 0 -28 4 -28 9 0 11 -39 2 -64 -15 -16 -11 -25 -10 -57 7 -50 25 -71 24
-98 -5z m162 -50 c-25 -32 -43 -45 -43 -31 0 9 63 76 67 71 3 -3 -8 -21 -24
-40z m157 -35 c0 -35 -49 -91 -79 -91 -37 0 -23 66 23 102 33 28 56 23 56 -11z
m-125 -1 c-3 -5 -10 -10 -16 -10 -5 0 -9 5 -9 10 0 6 7 10 16 10 8 0 12 -4 9
-10z m-220 -56 c-49 -44 -72 -57 -79 -45 -6 9 91 80 109 80 6 0 -8 -16 -30
-35z m215 26 c0 -5 -2 -10 -4 -10 -3 0 -8 5 -11 10 -3 6 -1 10 4 10 6 0 11 -4
11 -10z m-37 -45 c-3 -9 -8 -14 -10 -11 -3 3 -2 9 2 15 9 16 15 13 8 -4z m-66
-67 c-3 -7 -5 -2 -5 12 0 14 2 19 5 13 2 -7 2 -19 0 -25z m-267 -18 c0 -5 -2
-10 -4 -10 -3 0 -8 5 -11 10 -3 6 -1 10 4 10 6 0 11 -4 11 -10z"/>
<path d="M0 405 l0 -405 2970 0 2970 0 0 405 0 405 -2970 0 -2970 0 0 -405z
m2749 157 c13 -25 -5 -52 -34 -52 -20 0 -25 -5 -25 -25 0 -14 -4 -25 -10 -25
-6 0 -10 27 -10 60 l0 60 35 0 c23 0 38 -6 44 -18z m204 -44 c-3 -16 0 -34 7
-43 10 -12 10 -15 -2 -15 -11 0 -17 14 -21 47 -3 27 -3 52 0 57 10 16 22 -18
16 -46z m-109 16 c3 -9 6 -29 6 -45 0 -27 -3 -29 -35 -29 -28 0 -35 4 -35 20
0 11 12 26 28 35 l27 16 -27 -4 c-16 -2 -28 -1 -28 3 0 24 55 28 64 4z m64 2
c-11 -8 -18 -26 -18 -45 0 -17 -4 -31 -10 -31 -11 0 -14 73 -3 83 3 4 16 7 27
7 20 -1 20 -2 4 -14z m139 -36 c1 -41 1 -42 -5 -10 -4 22 -13 35 -22 35 -9 0
-17 -13 -21 -35 -6 -33 -6 -32 -8 13 -1 47 0 48 27 45 25 -3 27 -7 29 -48z
m91 38 c22 -22 13 -38 -19 -38 -18 0 -28 -4 -24 -10 4 -6 15 -10 24 -8 10 2
19 -1 19 -7 1 -5 -10 -10 -25 -10 -23 0 -29 5 -31 28 -2 16 -1 35 2 43 7 17
38 18 54 2z m72 2 c0 -5 -4 -10 -10 -10 -5 0 -10 -16 -10 -35 0 -19 -4 -35
-10 -35 -5 0 -10 20 -10 45 0 38 3 45 20 45 11 0 20 -4 20 -10z m80 0 c0 -5
-10 -10 -22 -10 -21 -1 -21 -2 5 -16 17 -9 27 -22 25 -32 -4 -20 -45 -29 -61
-13 -15 15 0 26 17 12 8 -7 17 -8 20 -3 3 5 -6 14 -19 20 -24 11 -32 31 -18
45 10 11 53 8 53 -3z m-1603 -267 c-3 -10 -5 -4 -5 12 0 17 2 24 5 18 2 -7 2
-21 0 -30z m503 12 c0 -15 -6 -25 -14 -25 -23 0 -28 17 -10 34 21 21 24 20 24
-9z m417 3 c-3 -8 -6 -5 -6 6 -1 11 2 17 5 13 3 -3 4 -12 1 -19z m290 -15 c-3
-10 -5 -4 -5 12 0 17 2 24 5 18 2 -7 2 -21 0 -30z m650 0 c-3 -10 -5 -4 -5 12
0 17 2 24 5 18 2 -7 2 -21 0 -30z m131 27 c20 0 14 -14 -12 -26 -20 -9 -23 -9
-18 8 3 12 -1 18 -13 18 -13 0 -16 -6 -12 -21 4 -16 3 -19 -5 -11 -18 18 -1
45 25 38 12 -3 28 -6 35 -6z m239 -27 c-3 -10 -5 -4 -5 12 0 17 2 24 5 18 2
-7 2 -21 0 -30z m380 0 c-3 -10 -5 -4 -5 12 0 17 2 24 5 18 2 -7 2 -21 0 -30z
m-2551 -2 c-4 -6 -13 -11 -19 -10 -9 0 -9 2 1 6 6 2 12 9 12 14 0 6 -5 7 -12
3 -7 -5 -8 -3 -3 5 5 9 11 9 17 3 6 -6 7 -15 4 -21z m21 7 c-3 -8 -6 -5 -6 6
-1 11 2 17 5 13 3 -3 4 -12 1 -19z m49 11 c10 -17 -13 -36 -27 -22 -12 12 -4
33 11 33 5 0 12 -5 16 -11z m61 -14 l2 -20 -6 20 -6 20 -8 -20 -8 -20 -1 20
-1 20 -9 -20 c-8 -19 -9 -19 -9 3 -1 19 4 23 21 20 14 -2 24 -11 25 -23z m81
3 c2 -9 -4 -18 -13 -21 -11 -5 -15 0 -15 19 0 28 23 29 28 2z m39 7 c8 -22 -6
-33 -17 -15 -13 20 -12 30 0 30 6 0 13 -7 17 -15z m34 -4 c7 11 9 11 9 -3 0
-10 -7 -18 -15 -18 -9 0 -15 9 -14 23 1 19 2 19 6 3 4 -15 7 -16 14 -5z m64 9
c4 -6 -5 -10 -20 -10 -15 0 -24 4 -20 10 3 6 12 10 20 10 8 0 17 -4 20 -10z
m133 -13 c2 -10 -3 -17 -12 -17 -10 0 -16 9 -16 21 0 24 23 21 28 -4z m62 -3
c0 -8 -4 -14 -10 -14 -5 0 -6 7 -3 17 5 12 3 14 -7 8 -9 -5 -11 -4 -6 4 9 14
26 5 26 -15z m23 6 c-3 -11 -7 -20 -9 -20 -2 0 -4 9 -4 20 0 11 4 20 9 20 5 0
7 -9 4 -20z m64 5 c8 -22 -6 -33 -17 -15 -13 20 -12 30 0 30 6 0 13 -7 17 -15z
m113 -11 c0 -8 -7 -14 -15 -14 -17 0 -18 2 -9 24 7 18 24 12 24 -10z m57 1 l2
-20 -6 20 -6 20 -8 -20 -8 -20 -1 20 -1 20 -9 -20 c-8 -19 -9 -19 -9 3 -1 19
4 23 21 20 14 -2 24 -11 25 -23z m36 18 c3 -5 -1 -14 -9 -21 -12 -11 -14 -9
-14 8 0 20 14 27 23 13z m78 -7 c-9 -11 -9 -15 1 -19 9 -4 9 -6 1 -6 -6 -1
-15 4 -18 9 -8 12 2 30 17 30 7 0 7 -5 -1 -14z m55 3 c10 -17 -13 -36 -27 -22
-12 12 -4 33 11 33 5 0 12 -5 16 -11z m40 -13 c2 -14 1 -14 -3 1 -5 16 -6 16
-14 -2 -7 -19 -8 -18 -8 3 -1 27 23 25 25 -2z m34 2 c0 -19 -2 -20 -10 -8 -13
19 -13 30 0 30 6 0 10 -10 10 -22z m43 -3 c-6 -16 -16 -19 -26 -8 -9 8 13 34
24 28 4 -3 6 -12 2 -20z m33 5 c0 -11 -4 -20 -8 -20 -4 0 -8 9 -8 20 0 11 4
20 8 20 4 0 8 -9 8 -20z m67 -6 c-4 -10 -9 -12 -15 -6 -12 12 -1 35 12 27 5
-3 6 -13 3 -21z m94 -6 c-3 -7 -5 -2 -5 12 0 14 2 19 5 13 2 -7 2 -19 0 -25z
m71 9 c2 -10 -3 -17 -12 -17 -10 0 -16 9 -16 21 0 24 23 21 28 -4z m42 3 c0
-11 -4 -20 -9 -20 -14 0 -23 18 -16 30 10 17 25 11 25 -10z m60 1 c0 -10 -7
-21 -15 -25 -11 -4 -15 1 -15 19 0 16 6 25 15 25 8 0 15 -9 15 -19z m60 -7 c0
-8 -4 -14 -9 -14 -11 0 -22 26 -14 34 9 9 23 -3 23 -20z m51 13 c-6 -8 -7 -18
-3 -22 4 -5 2 -5 -5 -1 -14 8 -6 36 9 36 7 0 6 -5 -1 -13z m68 -9 c-1 -21 -2
-21 -7 -3 l-5 20 -8 -20 c-7 -19 -8 -19 -8 3 -1 13 5 22 14 22 9 0 15 -9 14
-22z m46 12 c8 -12 -3 -50 -15 -50 -10 0 -21 40 -14 52 7 11 22 10 29 -2z m58
-15 c-3 -8 -9 -15 -14 -15 -10 0 -12 24 -3 33 11 11 24 -3 17 -18z m237 10
c-10 -12 -10 -15 0 -15 8 0 11 -3 7 -6 -3 -3 -10 -3 -16 0 -12 8 -3 36 11 36
6 0 5 -6 -2 -15z m58 -8 c2 -10 -3 -17 -12 -17 -10 0 -16 9 -16 21 0 24 23 21
28 -4z m34 5 c-7 -2 -10 -8 -6 -13 3 -5 0 -9 -5 -9 -12 0 -15 23 -5 33 4 4 12
4 17 0 8 -5 7 -8 -1 -11z m34 -2 c0 -12 -4 -16 -9 -11 -5 5 -6 14 -3 20 10 15
12 14 12 -9z m54 -6 c0 -8 -7 -14 -15 -14 -17 0 -18 2 -9 24 7 18 24 12 24
-10z m105 16 c5 -8 11 -8 20 0 9 8 15 8 20 0 9 -15 -3 -30 -20 -23 -9 3 -22 0
-30 -7 -13 -10 -15 -8 -15 14 0 26 13 35 25 16z m68 -10 c-3 -11 -7 -20 -9
-20 -2 0 -4 9 -4 20 0 11 4 20 9 20 5 0 7 -9 4 -20z m41 4 c9 -22 8 -24 -9
-24 -8 0 -15 9 -15 20 0 24 15 27 24 4z m42 5 c3 -6 -1 -18 -10 -27 -15 -15
-16 -14 -16 11 0 27 13 36 26 16z m50 -9 c0 -11 -4 -20 -8 -20 -10 0 -11 24
-1 33 9 9 9 10 9 -13z m74 -6 c0 -8 -7 -14 -15 -14 -15 0 -21 21 -9 33 10 9
24 -2 24 -19z m80 0 c0 -8 -4 -14 -10 -14 -5 0 -10 9 -10 21 0 11 5 17 10 14
6 -3 10 -13 10 -21z m-1143 -6 c-3 -8 -6 -5 -6 6 -1 11 2 17 5 13 3 -3 4 -12
1 -19z m720 0 c-3 -8 -6 -5 -6 6 -1 11 2 17 5 13 3 -3 4 -12 1 -19z m-2027
-78 c0 -5 -5 -10 -11 -10 -5 0 -7 5 -4 10 3 6 8 10 11 10 2 0 4 -4 4 -10z m67
-22 c-3 -7 -5 -2 -5 12 0 14 2 19 5 13 2 -7 2 -19 0 -25z m443 7 c0 -28 -17
-34 -27 -9 -3 9 0 20 8 25 19 12 19 12 19 -16z m260 -4 c0 -13 -2 -13 -9 -2
-7 11 -9 11 -14 0 -3 -8 -6 -5 -6 8 -1 16 3 21 14 17 8 -4 15 -14 15 -23z
m130 19 c0 -5 -7 -10 -16 -10 -8 0 -12 5 -9 10 3 6 10 10 16 10 5 0 9 -4 9
-10z m107 -27 c-3 -10 -5 -4 -5 12 0 17 2 24 5 18 2 -7 2 -21 0 -30z m140 18
c0 -11 -4 -18 -8 -15 -4 2 -9 -1 -11 -8 -6 -16 -28 -1 -28 19 0 10 6 14 20 10
11 -3 20 -1 20 4 0 5 2 9 4 9 3 0 4 -9 3 -19z m1190 -18 c-3 -10 -5 -4 -5 12
0 17 2 24 5 18 2 -7 2 -21 0 -30z m73 27 c0 -5 -4 -10 -10 -10 -5 0 -10 5 -10
10 0 6 5 10 10 10 6 0 10 -4 10 -10z m50 -5 c11 -13 10 -14 -4 -9 -9 3 -16 10
-16 15 0 13 6 11 20 -6z m121 -8 c-10 -9 -11 -8 -5 6 3 10 9 15 12 12 3 -3 0
-11 -7 -18z m-2931 9 c0 -3 -4 -8 -10 -11 -5 -3 -10 -1 -10 4 0 6 5 11 10 11
6 0 10 -2 10 -4z m46 -34 c-4 -3 -12 0 -19 8 -9 10 -9 11 1 6 7 -5 12 -1 13
11 1 17 2 17 6 0 3 -10 2 -21 -1 -25z m64 21 c0 -15 -2 -16 -10 -3 -8 13 -10
12 -11 -5 l-1 -20 -6 20 -5 20 -8 -20 c-7 -19 -8 -19 -8 3 -1 17 5 22 24 22
17 0 25 -5 25 -17z m40 -9 c0 -22 -2 -25 -15 -14 -8 7 -15 19 -15 26 0 8 7 14
15 14 10 0 15 -10 15 -26z m80 6 c0 -21 -15 -27 -25 -10 -3 6 -1 10 5 10 6 0
8 5 5 10 -3 6 -1 10 4 10 6 0 11 -9 11 -20z m48 6 c-8 -9 -15 -10 -19 -4 -4 6
-9 5 -12 -3 -4 -10 -6 -9 -6 4 -1 12 7 17 24 17 22 0 24 -2 13 -14z m117 -6
c0 -7 -6 -14 -13 -16 -7 -1 -8 0 -2 3 16 8 11 26 -6 19 -9 -3 -12 -2 -9 5 9
13 30 6 30 -11z m56 5 c8 19 9 19 6 1 -3 -29 -27 -33 -26 -4 1 20 2 21 7 3 l5
-20 8 20z m33 0 c-4 -8 -8 -15 -10 -15 -2 0 -4 7 -4 15 0 8 4 15 10 15 5 0 7
-7 4 -15z m106 -2 c0 -15 -2 -16 -10 -3 -9 13 -10 13 -11 0 0 -10 -2 -11 -6
-2 -2 6 -9 10 -14 6 -5 -3 -9 0 -9 5 0 6 11 11 25 11 17 0 25 -5 25 -17z m58
0 c-4 -22 -22 -20 -26 1 -2 10 3 16 13 16 10 0 15 -7 13 -17z m82 -8 c0 -14
-4 -25 -9 -25 -5 0 -8 11 -7 25 1 33 16 33 16 0z m40 5 c0 -11 -4 -20 -9 -20
-14 0 -23 18 -16 30 10 17 25 11 25 -10z m50 3 c0 -14 -2 -15 -9 -4 -7 11 -9
11 -14 0 -4 -10 -6 -9 -6 4 -1 9 6 17 14 17 8 0 15 -8 15 -17z m104 2 c-4 -8
-8 -15 -10 -15 -2 0 -4 7 -4 15 0 8 4 15 10 15 5 0 7 -7 4 -15z m46 -6 c0 -24
-23 -21 -28 4 -2 10 3 17 12 17 10 0 16 -9 16 -21z m45 11 c3 -6 -1 -7 -9 -4
-9 3 -16 2 -16 -4 0 -6 5 -12 12 -14 7 -3 6 -7 -5 -11 -13 -5 -17 -1 -17 18 0
25 23 35 35 15z m65 6 c0 -15 -14 -35 -21 -30 -15 9 -10 34 6 34 8 0 15 -2 15
-4z m85 -6 c3 -5 1 -10 -5 -10 -6 0 -8 -4 -5 -10 3 -5 2 -10 -4 -10 -5 0 -13
5 -16 10 -7 12 2 30 15 30 5 0 12 -4 15 -10z m43 -11 c3 -12 2 -12 -6 0 -8 11
-10 11 -15 0 -4 -10 -6 -8 -6 4 -1 21 21 18 27 -4z m80 4 c-4 -22 -22 -20 -26
1 -2 10 3 16 13 16 10 0 15 -7 13 -17z m25 -3 c-3 -11 -7 -20 -9 -20 -2 0 -4
9 -4 20 0 11 4 20 9 20 5 0 7 -9 4 -20z m24 -2 c-3 -8 -6 -5 -6 6 -1 11 2 17
5 13 3 -3 4 -12 1 -19z m102 5 c0 -11 -3 -13 -6 -5 -2 6 -9 10 -13 7 -5 -3
-11 -1 -15 5 -3 5 3 10 14 10 14 0 21 -6 20 -17z m191 -3 c0 -11 -7 -20 -15
-20 -17 0 -18 2 -9 24 9 23 24 20 24 -4z m66 9 c10 -17 -14 -35 -28 -21 -9 9
-9 12 1 12 7 0 9 5 6 10 -3 6 -2 10 4 10 5 0 13 -5 17 -11z m30 -9 c0 -11 -4
-20 -8 -20 -4 0 -8 9 -8 20 0 11 4 20 8 20 4 0 8 -9 8 -20z m36 13 c-10 -4
-10 -8 -1 -19 7 -8 7 -14 1 -14 -12 0 -23 26 -15 34 4 3 11 6 17 5 6 0 5 -3
-2 -6z m88 -13 c0 -11 -4 -20 -10 -20 -5 0 -10 9 -10 20 0 11 5 20 10 20 6 0
10 -9 10 -20z m46 9 c8 -14 -11 -33 -25 -25 -11 7 -4 36 9 36 5 0 12 -5 16
-11z m44 4 c-8 -3 -18 -11 -22 -17 -5 -7 -8 -4 -8 7 0 11 7 17 23 16 15 0 17
-2 7 -6z m41 -12 c7 11 9 10 9 -4 0 -22 -25 -18 -26 4 -1 12 0 12 4 0 3 -12 5
-12 13 0z m49 -1 c0 -11 -4 -20 -10 -20 -5 0 -10 9 -10 20 0 11 5 20 10 20 6
0 10 -9 10 -20z m70 -6 c0 -22 -2 -25 -15 -14 -8 7 -15 19 -15 26 0 8 7 14 15
14 10 0 15 -10 15 -26z m80 6 c0 -11 -7 -20 -15 -20 -8 0 -15 5 -15 10 0 6 5
10 11 10 5 0 7 5 4 10 -3 6 -1 10 4 10 6 0 11 -9 11 -20z m40 0 c0 -11 -4 -20
-9 -20 -5 0 -11 9 -14 20 -3 13 0 20 9 20 8 0 14 -9 14 -20z m90 0 c0 -11 -4
-20 -9 -20 -14 0 -23 18 -16 30 10 17 25 11 25 -10z m60 3 c0 -15 -2 -16 -10
-3 -9 13 -10 13 -10 0 0 -12 -2 -13 -9 -1 -7 11 -9 11 -14 0 -4 -10 -6 -9 -6
4 -1 12 7 17 24 17 17 0 25 -5 25 -17z m150 8 c0 -3 -4 -12 -9 -19 -6 -11 -9
-9 -13 5 -3 12 0 20 8 20 8 0 14 -3 14 -6z m44 1 c8 -13 -11 -35 -23 -28 -16
10 -14 36 3 36 8 0 17 -4 20 -8z m101 -12 c0 -7 -6 -15 -12 -17 -7 -3 -13 0
-13 7 0 6 5 8 10 5 6 -3 10 -2 10 4 0 5 -5 12 -10 14 -6 3 -5 4 2 3 7 -2 13
-9 13 -16z m65 0 c0 -11 -7 -20 -15 -20 -8 0 -15 5 -15 10 0 6 5 10 11 10 5 0
7 5 4 10 -3 6 -1 10 4 10 6 0 11 -9 11 -20z m47 -2 c-3 -8 -6 -5 -6 6 -1 11 2
17 5 13 3 -3 4 -12 1 -19z m80 -15 c-3 -3 -10 -2 -16 2 -7 4 -7 10 2 20 10 11
13 11 15 -2 2 -8 1 -17 -1 -20z m38 17 c0 -22 -21 -22 -22 1 -1 12 3 19 10 16
7 -2 12 -10 12 -17z m-1094 1 c7 11 9 10 9 -4 0 -20 -22 -19 -26 1 -2 9 -1 9
3 1 4 -8 8 -7 14 2z m336 -18 c-3 -3 -11 -2 -17 2 -9 6 -9 10 1 16 14 8 27 -7
16 -18z m298 8 c-8 -14 -25 -14 -25 0 0 5 5 7 10 4 6 -3 10 -1 10 6 0 7 3 10
6 6 3 -3 3 -10 -1 -16z m-2245 -1 c0 -5 -4 -10 -9 -10 -6 0 -13 5 -16 10 -3 6
1 10 9 10 9 0 16 -4 16 -10z m160 0 c0 -5 -4 -10 -10 -10 -5 0 -10 5 -10 10 0
6 5 10 10 10 6 0 10 -4 10 -10z m175 0 c-3 -5 -10 -10 -16 -10 -5 0 -9 5 -9
10 0 6 7 10 16 10 8 0 12 -4 9 -10z m725 0 c0 -5 -4 -10 -9 -10 -6 0 -13 5
-16 10 -3 6 1 10 9 10 9 0 16 -4 16 -10z m1375 0 c-3 -5 -10 -10 -16 -10 -5 0
-9 5 -9 10 0 6 7 10 16 10 8 0 12 -4 9 -10z m180 0 c3 -5 1 -10 -4 -10 -6 0
-11 5 -11 10 0 6 2 10 4 10 3 0 8 -4 11 -10z"/>
<path d="M2690 550 c0 -13 7 -20 19 -20 25 0 38 20 20 31 -23 15 -39 10 -39
-11z"/>
<path d="M2800 490 c-12 -8 -11 -10 8 -10 12 0 22 5 22 10 0 13 -11 13 -30 0z"/>
<path d="M3108 523 c7 -3 16 -2 19 1 4 3 -2 6 -13 5 -11 0 -14 -3 -6 -6z"/>
<path d="M2165 280 c-3 -5 -1 -10 4 -10 6 0 11 5 11 10 0 6 -2 10 -4 10 -3 0
-8 -4 -11 -10z"/>
<path d="M2690 280 c0 -5 5 -10 10 -10 6 0 10 5 10 10 0 6 -4 10 -10 10 -5 0
-10 -4 -10 -10z"/>
<path d="M3400 280 c0 -5 5 -10 11 -10 5 0 7 5 4 10 -3 6 -8 10 -11 10 -2 0
-4 -4 -4 -10z"/>
<path d="M3020 169 c0 -5 5 -7 10 -4 6 3 10 8 10 11 0 2 -4 4 -10 4 -5 0 -10
-5 -10 -11z"/>
<path d="M4100 169 c0 -5 5 -7 10 -4 6 3 10 8 10 11 0 2 -4 4 -10 4 -5 0 -10
-5 -10 -11z"/>
</g>
</svg>
