<svg preserveAspectRatio="xMidYMid" style="max-height: 500px" viewBox="77.48635847822267 52.062672064777324 347.55388261718747 48.41781376518219" xmlns="http://www.w3.org/2000/svg" width="347.55388261718747" height="48.41781376518219"><defs><filter height="300%" width="300%" y="-100%" x="-100%" id="editing-hole"><feFlood result="black" flood-color="#000"/><feMorphology result="erode" in="SourceGraphic" radius="2" operator="dilate"/><feGaussianBlur result="blur" stdDeviation="4" in="erode"/><feOffset result="offset" dy="2" dx="2" in="blur"/><feComposite result="merge" in2="black" in="offset" operator="atop"/><feComposite result="inner-shadow" in2="SourceGraphic" in="merge" operator="in"/></filter></defs><g filter="url(#editing-hole)"><g transform="translate(78.63268765807152, 97.46500205993652)"><path fill="#ccc" d="M14.62 0.16L14.62 0.16L14.62 0.16Q11.20-0.45 9.41-0.70L9.41-0.70L9.41-0.70Q7.62-0.96 5.73-0.96L5.73-0.96L5.73-0.96Q3.84-0.96 2.88 0L2.88 0L2.88 0Q1.41-1.09 0.64-4.54L0.64-4.54L0.64-4.54Q0.38-5.50 0.38-7.10L0.38-7.10L0.38-7.10Q0.38-10.56 4.35-13.95L4.35-13.95L24.32-30.34L24.32-30.34Q16.06-31.68 12.74-31.68L12.74-31.68L12.74-31.68Q9.41-31.68 6.34-30.21L6.34-30.21L6.34-30.21Q4.61-33.02 4.61-36.29L4.61-36.29L4.61-36.29Q4.61-39.55 7.01-41.22L7.01-41.22L7.01-41.22Q9.41-42.88 13.44-42.88L13.44-42.88L13.44-42.88Q15.23-42.88 17.15-42.62L17.15-42.62L17.15-42.62Q19.07-42.37 20.99-42.11L20.99-42.11L24.77-41.54L24.77-41.54Q26.62-41.28 29.02-41.28L29.02-41.28L29.02-41.28Q31.42-41.28 34.11-41.92L34.11-41.92L34.11-41.92Q36.67-39.68 36.67-35.97L36.67-35.97L36.67-35.97Q36.67-31.49 33.60-29.06L33.60-29.06L11.84-11.65L11.84-11.65Q16.51-10.37 24.26-10.37L24.26-10.37L24.26-10.37Q28.10-10.37 30.53-12.29L30.53-12.29L30.53-12.29Q31.62-10.88 31.90-9.70L31.90-9.70L31.90-9.70Q32.19-8.51 32.19-6.82L32.19-6.82L32.19-6.82Q32.19-5.12 31.62-3.74L31.62-3.74L31.62-3.74Q31.04-2.37 29.82-1.34L29.82-1.34L29.82-1.34Q27.39 0.77 22.02 0.77L22.02 0.77L22.02 0.77Q18.05 0.77 14.62 0.16ZM65.34-9.86L65.34-9.86L65.34-9.86Q66.56-8.32 66.56-5.82L66.56-5.82L66.56-5.82Q66.56-2.37 64-0.54L64-0.54L64-0.54Q61.44 1.28 57.41 1.28L57.41 1.28L57.41 1.28Q55.10 1.28 51.58 0.77L51.58 0.77L51.58 0.77Q44.67-0.32 42.56-0.32L42.56-0.32L42.56-0.32Q40.45-0.32 39.62-0.22L39.62-0.22L39.62-0.22Q38.78-0.13 37.44 0L37.44 0L45.31-42.24L72.90-42.24L72.90-42.24Q72.90-38.34 71.01-36.29L71.01-36.29L71.01-36.29Q69.12-34.24 65.41-34.24L65.41-34.24L65.41-34.24Q61.70-34.24 57.92-35.97L57.92-35.97L55.94-24.77L67.33-24.77L67.33-24.77Q67.33-21.38 65.66-19.49L65.66-19.49L65.66-19.49Q64-17.60 61.22-17.60L61.22-17.60L61.22-17.60Q58.43-17.60 56.70-18.24L56.70-18.24L56.70-18.24Q54.98-18.88 54.78-19.07L54.78-19.07L52.48-6.98L52.48-6.98Q54.02-6.78 56.90-6.78L56.90-6.78L56.90-6.78Q61.82-6.78 65.34-9.86ZM99.78-9.86L99.78-9.86L99.78-9.86Q100.99-8.32 100.99-5.82L100.99-5.82L100.99-5.82Q100.99-2.37 98.43-0.54L98.43-0.54L98.43-0.54Q95.87 1.28 91.84 1.28L91.84 1.28L91.84 1.28Q89.54 1.28 86.02 0.77L86.02 0.77L86.02 0.77Q79.10-0.32 76.99-0.32L76.99-0.32L76.99-0.32Q74.88-0.32 74.05-0.22L74.05-0.22L74.05-0.22Q73.22-0.13 71.87 0L71.87 0L79.74-42.24L107.33-42.24L107.33-42.24Q107.33-38.34 105.44-36.29L105.44-36.29L105.44-36.29Q103.55-34.24 99.84-34.24L99.84-34.24L99.84-34.24Q96.13-34.24 92.35-35.97L92.35-35.97L90.37-24.77L101.76-24.77L101.76-24.77Q101.76-21.38 100.10-19.49L100.10-19.49L100.10-19.49Q98.43-17.60 95.65-17.60L95.65-17.60L95.65-17.60Q92.86-17.60 91.14-18.24L91.14-18.24L91.14-18.24Q89.41-18.88 89.22-19.07L89.22-19.07L86.91-6.98L86.91-6.98Q88.45-6.78 91.33-6.78L91.33-6.78L91.33-6.78Q96.26-6.78 99.78-9.86ZM112-31.17L112-31.17L112-31.17Q109.82-32.83 109.82-36.38L109.82-36.38L109.82-36.38Q109.82-39.94 112.16-41.79L112.16-41.79L112.16-41.79Q114.50-43.65 118.53-43.65L118.53-43.65L118.53-43.65Q121.09-43.65 127.17-42.75L127.17-42.75L131.52-42.11L131.52-42.11Q133.70-41.86 135.97-41.86L135.97-41.86L135.97-41.86Q138.24-41.86 139.78-42.82L139.78-42.82L139.78-42.82Q142.08-40.77 142.08-37.82L142.08-37.82L142.08-37.82Q142.08-34.88 139.46-32.77L139.46-32.77L139.46-32.77Q136.77-30.53 133.31-30.53L133.31-30.53L133.31-30.53Q131.65-30.53 128.96-30.98L128.96-30.98L128.96-30.98Q125.82-21.12 125.82-14.27L125.82-14.27L125.82-14.27Q125.82-7.42 129.28-3.84L129.28-3.84L129.28-3.84Q127.68-0.96 125.31 0.16L125.31 0.16L125.31 0.16Q122.94 1.28 119.39 1.28L119.39 1.28L119.39 1.28Q115.84 1.28 113.63-0.67L113.63-0.67L113.63-0.67Q111.42-2.62 111.42-6.66L111.42-6.66L111.42-6.66Q111.42-11.33 113.98-19.01L113.98-19.01L113.98-19.01Q116.54-26.62 120.38-32.45L120.38-32.45L120.38-32.45Q118.53-32.64 116.61-32.64L116.61-32.64L116.61-32.64Q112.64-32.64 112-31.17ZM138.11-10.37L138.11-10.37L138.11-10.37Q136.06-11.84 136.06-14.66L136.06-14.66L136.06-14.66Q136.06-16.19 136.83-17.44L136.83-17.44L136.83-17.44Q137.60-18.69 139.14-18.88L139.14-18.88L151.74-18.88L151.74-18.88Q153.86-18.88 154.50-20.16L154.50-20.16L154.50-20.16Q155.52-19.58 155.97-18.37L155.97-18.37L155.97-18.37Q156.42-17.15 156.42-15.87L156.42-15.87L156.42-15.87Q156.42-14.59 155.42-13.34L155.42-13.34L155.42-13.34Q154.43-12.10 152.96-11.97L152.96-11.97L141.25-11.97L141.25-11.97Q139.90-11.97 139.26-11.55L139.26-11.55L139.26-11.55Q138.62-11.14 138.11-10.37ZM194.24-13.25L194.24-13.25L194.24-13.25Q195.90-12.03 195.90-9.44L195.90-9.44L195.90-9.44Q195.90-6.85 194.78-5.02L194.78-5.02L194.78-5.02Q193.66-3.20 191.49-1.79L191.49-1.79L191.49-1.79Q186.82 1.22 178.66 1.22L178.66 1.22L178.66 1.22Q170.50 1.22 166.05-3.04L166.05-3.04L166.05-3.04Q161.60-7.30 161.60-14.85L161.60-14.85L161.60-14.85Q161.60-25.54 167.17-33.66L167.17-33.66L167.17-33.66Q171.39-39.68 178.94-42.24L178.94-42.24L178.94-42.24Q182.85-43.52 186.69-43.52L186.69-43.52L186.69-43.52Q190.53-43.52 192.90-43.01L192.90-43.01L192.90-43.01Q195.26-42.50 197.06-41.47L197.06-41.47L197.06-41.47Q200.96-39.23 200.96-35.65L200.96-35.65L200.96-35.65Q200.96-32.38 197.89-29.95L197.89-29.95L197.89-29.95Q195.07-27.78 192.77-27.78L192.77-27.78L192.77-27.78Q190.46-27.78 189.50-28.10L189.50-28.10L189.50-28.10Q189.76-30.40 189.76-31.90L189.76-31.90L189.76-31.90Q189.76-33.41 189.70-34.50L189.70-34.50L189.70-34.50Q189.63-35.58 189.31-36.61L189.31-36.61L189.31-36.61Q188.67-38.98 186.72-38.98L186.72-38.98L186.72-38.98Q184.77-38.98 182.82-37.15L182.82-37.15L182.82-37.15Q180.86-35.33 179.20-32.26L179.20-32.26L179.20-32.26Q175.42-25.28 175.42-17.02L175.42-17.02L175.42-17.02Q175.42-13.06 177.66-10.78L177.66-10.78L177.66-10.78Q179.90-8.51 184.70-8.51L184.70-8.51L184.70-8.51Q188.29-8.51 191.68-10.88L191.68-10.88L191.68-10.88Q193.15-11.90 194.24-13.25ZM202.18-15.62L202.18-15.62L202.18-15.62Q202.18-27.71 208.45-35.33L208.45-35.33L208.45-35.33Q215.10-43.58 226.69-43.58L226.69-43.58L226.69-43.58Q235.07-43.58 239.30-39.52L239.30-39.52L239.30-39.52Q243.52-35.46 243.52-26.88L243.52-26.88L243.52-26.88Q243.52-13.82 236.86-6.21L236.86-6.21L236.86-6.21Q230.27 1.28 219.20 1.28L219.20 1.28L219.20 1.28Q210.56 1.28 206.37-3.04L206.37-3.04L206.37-3.04Q202.18-7.36 202.18-15.62ZM219.01-28.86L219.01-28.86L219.01-28.86Q216.13-17.34 216.13-8.26L216.13-8.26L216.13-8.26Q216.13-6.08 216.86-4.67L216.86-4.67L216.86-4.67Q217.60-3.26 219.55-3.26L219.55-3.26L219.55-3.26Q221.50-3.26 222.72-4.19L222.72-4.19L222.72-4.19Q223.94-5.12 224.90-7.23L224.90-7.23L224.90-7.23Q226.43-10.69 227.87-18.02L227.87-18.02L227.87-18.02Q229.31-25.34 229.44-28.38L229.44-28.38L229.44-28.38Q229.57-31.42 229.57-33.73L229.57-33.73L229.57-33.73Q229.57-36.03 228.86-37.50L228.86-37.50L228.86-37.50Q228.16-38.98 226.27-38.98L226.27-38.98L226.27-38.98Q224.38-38.98 223.10-37.82L223.10-37.82L223.10-37.82Q220.74-35.65 219.01-28.86ZM252.10 0L244.74 0L256.32-42.24L269.70-42.24L272.64-18.11L284.54-42.24L295.74-42.24L296.90-10.62L296.90-10.62Q297.15-4.35 300.22-2.43L300.22-2.43L300.22-2.43Q299.52-1.15 297.47 0.06L297.47 0.06L297.47 0.06Q295.42 1.28 292.70 1.28L292.70 1.28L292.70 1.28Q289.98 1.28 288.38 0.51L288.38 0.51L288.38 0.51Q286.78-0.26 285.89-1.54L285.89-1.54L285.89-1.54Q284.29-3.84 284.29-8.26L284.29-8.26L284.29-28.03L271.68 0L263.74 0L259.26-28.74L252.10 0ZM328-42.69L328-42.69L328-42.69Q343.68-42.69 343.68-31.62L343.68-31.62L343.68-31.62Q343.68-25.54 339.78-21.89L339.78-21.89L339.78-21.89Q335.94-18.24 329.22-18.24L329.22-18.24L329.22-18.24Q326.08-18.24 323.65-20.03L323.65-20.03L323.65-20.03Q322.50-20.80 321.73-21.82L321.73-21.82L321.73-21.82Q326.40-21.82 328.86-24.67L328.86-24.67L328.86-24.67Q331.33-27.52 331.33-33.09L331.33-33.09L331.33-33.09Q331.33-38.66 325.82-38.66L325.82-38.66L324.29-38.66L324.29-38.66Q323.90-38.66 323.58-38.59L323.58-38.59L316.22 0L302.34 0L310.21-41.92L310.21-41.92Q317.06-42.56 321.02-42.62L321.02-42.62L321.02-42.62Q324.99-42.69 328-42.69Z"/></g></g><style>text {
  font-size: 64px;
  font-family: Arial Black;
  dominant-baseline: central;
  text-anchor: middle;
}</style></svg>